<svg width="24" height="24" viewBox="0 0 24 24" fill="none" xmlns="http://www.w3.org/2000/svg">
<path d="M18.8178 4.24788C16.5748 3.32488 12.8478 2.10288 12.4998 3.99988C12.4998 3.99988 12.4258 4.29488 12.3348 4.99988H10.9348C10.0478 4.99988 9.28379 4.99988 8.67179 5.08188C8.01679 5.16988 7.38779 5.36888 6.87879 5.87888C6.36879 6.38888 6.16979 7.01688 6.08179 7.67188C5.99979 8.28388 5.99979 9.04788 5.99979 9.93388V10.9999H4.41379L4.70679 10.7069C4.8023 10.6146 4.87848 10.5043 4.93089 10.3823C4.9833 10.2603 5.01088 10.1291 5.01204 9.99628C5.01319 9.8635 4.98789 9.73182 4.93761 9.60893C4.88733 9.48603 4.81307 9.37438 4.71918 9.28049C4.62529 9.18659 4.51364 9.11234 4.39074 9.06206C4.26784 9.01178 4.13616 8.98648 4.00339 8.98763C3.87061 8.98878 3.73939 9.01637 3.61738 9.06878C3.49538 9.12119 3.38503 9.19737 3.29279 9.29288L1.29279 11.2929C1.10532 11.4804 1 11.7347 1 11.9999C1 12.265 1.10532 12.5194 1.29279 12.7069L3.29279 14.7069C3.48139 14.889 3.73399 14.9898 3.99619 14.9876C4.25838 14.9853 4.5092 14.8801 4.6946 14.6947C4.88001 14.5093 4.98518 14.2585 4.98746 13.9963C4.98974 13.7341 4.88894 13.4815 4.70679 13.2929L4.41379 12.9999H8.99979C9.265 12.9999 9.51936 12.8945 9.70689 12.707C9.89443 12.5195 9.99979 12.2651 9.99979 11.9999C9.99979 11.7347 9.89443 11.4803 9.70689 11.2928C9.51936 11.1052 9.265 10.9999 8.99979 10.9999H7.99979V9.99988C7.99979 9.02888 8.00179 8.40088 8.06379 7.93888C8.12279 7.50488 8.21679 7.36888 8.29279 7.29288C8.36879 7.21688 8.50479 7.12288 8.93879 7.06388C9.39979 7.00188 10.0288 6.99988 10.9998 6.99988H12.1458C12.0412 8.66445 11.9926 10.3321 11.9998 11.9999C11.9998 14.2099 12.0498 15.8249 12.1178 16.9999H8.99979C8.73457 16.9999 8.48022 16.8945 8.29268 16.707C8.10514 16.5195 7.99979 16.2651 7.99979 15.9999V14.9999C7.99979 14.7347 7.89443 14.4803 7.70689 14.2928C7.51936 14.1052 7.265 13.9999 6.99979 13.9999C6.73457 13.9999 6.48022 14.1052 6.29268 14.2928C6.10514 14.4803 5.99979 14.7347 5.99979 14.9999V15.9999C5.99979 16.7955 6.31586 17.5586 6.87847 18.1212C7.44108 18.6838 8.20414 18.9999 8.99979 18.9999H12.2938C12.4028 19.8219 12.4998 20.0149 12.4998 19.9999C12.8468 21.8959 16.5708 20.6759 18.8138 19.7539C19.5938 19.4329 19.9838 19.2729 20.3138 18.8309C20.6438 18.3889 20.6868 17.9829 20.7708 17.1729C20.8888 16.0429 20.9998 14.3499 20.9998 11.9929C20.9998 9.63888 20.8888 7.95088 20.7708 6.82288C20.6868 6.01488 20.6448 5.61188 20.3148 5.16988C19.9848 4.72788 19.5948 4.56788 18.8178 4.24788Z" fill="#95919F"/>
</svg>
