<svg xmlns="http://www.w3.org/2000/svg" version="1.1" xmlns:xlink="http://www.w3.org/1999/xlink" width="512" height="512" x="0" y="0" viewBox="0 0 36 36" style="enable-background:new 0 0 512 512" xml:space="preserve" class=""><g><path d="M4 33.99h2.5c1.103 0 2-.898 2-2v-3.46c0-1.103-.897-2-2-2H4c-1.103 0-2 .897-2 2v3.46c0 1.102.897 2 2 2zm0-5.46h2.5l.002 3.46H4zM12.5 33.99H15c1.103 0 2-.898 2-2v-12.4c0-1.102-.897-2-2-2h-2.5c-1.103 0-2 .898-2 2v12.4c0 1.102.897 2 2 2zm0-14.4H15l.002 12.4H12.5zM21 21.07c-1.103 0-2 .897-2 2v8.92c0 1.102.897 2 2 2h2.5c1.103 0 2-.898 2-2v-8.92c0-1.103-.897-2-2-2zm0 10.92v-8.92h2.5l.002 8.92zM34 31.99V12.57c0-1.103-.897-2-2-2h-2.5c-1.103 0-2 .897-2 2v19.42c0 1.102.897 2 2 2H32c1.103 0 2-.898 2-2zm-4.5-19.42H32l.002 19.42H29.5zM5.947 16.737l7.546-7.546a1.003 1.003 0 0 1 1.134-.197l5.956 2.801a3 3 0 0 0 3.398-.592l7.487-7.486a1 1 0 1 0-1.414-1.414L22.567 9.79a1 1 0 0 1-1.132.197l-5.956-2.803a3.012 3.012 0 0 0-3.4.594l-7.546 7.546a1 1 0 1 0 1.414 1.414z" fill="#525252" opacity="1" data-original="#000000" class=""></path></g></svg>