<svg width="25" height="24" viewBox="0 0 25 24" fill="none" xmlns="http://www.w3.org/2000/svg"><path d="M12.8569 0C10.4836 0 8.16348 0.703788 6.19009 2.02236C4.21671 3.34094 2.67864 5.21509 1.77038 7.4078C0.862133 9.60051 0.624493 12.0133 1.08752 14.3411C1.55054 16.6689 2.69343 18.8071 4.37166 20.4853C6.04989 22.1635 8.18808 23.3064 10.5159 23.7694C12.8436 24.2324 15.2564 23.9948 17.4491 23.0866C19.6418 22.1783 21.516 20.6402 22.8346 18.6668C24.1531 16.6935 24.8569 14.3734 24.8569 12C24.8569 8.8174 23.5927 5.76515 21.3422 3.51472C19.0918 1.26428 16.0395 0 12.8569 0ZM12.8569 3.588C13.6419 3.588 14.4092 3.82075 15.0619 4.25683C15.7146 4.6929 16.2233 5.31272 16.5237 6.0379C16.8242 6.76308 16.9028 7.56106 16.7497 8.33095C16.5967 9.10083 16.2188 9.80804 15.6638 10.3632C15.1088 10.9183 14.4017 11.2964 13.6319 11.4496C12.862 11.6029 12.064 11.5244 11.3388 11.2242C10.6135 10.9239 9.99356 10.4154 9.55732 9.76279C9.12108 9.11022 8.88813 8.34295 8.88794 7.558C8.88794 6.50536 9.3061 5.49582 10.0504 4.75149C10.7948 4.00716 11.8043 3.588 12.8569 3.588ZM12.8569 20.862C10.7541 20.8643 8.7198 20.1141 7.12194 18.747C6.93582 18.5883 6.78634 18.3912 6.68379 18.1692C6.58124 17.9472 6.52807 17.7056 6.52794 17.461C6.52793 16.9339 6.63212 16.4119 6.83451 15.9252C7.0369 15.4384 7.33351 14.9965 7.70728 14.6248C8.08105 14.253 8.5246 13.9589 9.01245 13.7591C9.50029 13.5594 10.0228 13.4581 10.5499 13.461H15.1669C15.6936 13.4589 16.2154 13.5608 16.7026 13.7609C17.1897 13.961 17.6326 14.2553 18.0057 14.6269C18.3788 14.9985 18.6749 15.4402 18.8769 15.9266C19.0789 16.4129 19.1829 16.9344 19.1829 17.461C19.1831 17.7054 19.1301 17.9468 19.0277 18.1687C18.9253 18.3906 18.7759 18.5875 18.5899 18.746C16.9932 20.1139 14.9595 20.8649 12.8569 20.863V20.862Z" fill="#95919F"></path></svg>