<svg width="30" height="31" viewBox="0 0 30 31" fill="none" xmlns="http://www.w3.org/2000/svg">
<rect y="0.5" width="30" height="30" rx="8" fill="#F1F2F4"/>
<rect x="7.5" y="8" width="15" height="15" rx="7.5" stroke="white" stroke-opacity="0.3"/>
<path d="M9.53228 10.0342C9.64836 9.91809 9.78617 9.82599 9.93785 9.76315C10.0895 9.70031 10.2521 9.66797 10.4163 9.66797C10.5805 9.66797 10.743 9.70031 10.8947 9.76315C11.0464 9.82599 11.1842 9.91809 11.3003 10.0342L15.0003 13.7342L18.6993 10.0342C18.9365 9.81446 19.2496 9.69517 19.5728 9.70138C19.8961 9.70759 20.2044 9.83882 20.4329 10.0675C20.6615 10.2962 20.7926 10.6046 20.7986 10.9278C20.8046 11.2511 20.6852 11.5641 20.4653 11.8012L16.7663 15.5012L20.4663 19.2012C20.5856 19.3165 20.6808 19.4545 20.7463 19.607C20.8118 19.7595 20.8462 19.9236 20.8476 20.0896C20.849 20.2555 20.8173 20.4201 20.7544 20.5737C20.6915 20.7273 20.5987 20.8669 20.4813 20.9842C20.3639 21.1015 20.2243 21.1943 20.0706 21.2571C19.917 21.3199 19.7524 21.3515 19.5864 21.35C19.4204 21.3485 19.2564 21.314 19.1039 21.2484C18.9515 21.1829 18.8136 21.0876 18.6983 20.9682L14.9993 17.2682L11.2993 20.9682C11.1849 21.0915 11.0469 21.1904 10.8934 21.2591C10.74 21.3278 10.5742 21.3648 10.4061 21.3679C10.238 21.3711 10.071 21.3403 9.91508 21.2773C9.75916 21.2144 9.61753 21.1207 9.49868 21.0018C9.37982 20.8829 9.28618 20.7412 9.22335 20.5852C9.16053 20.4293 9.12981 20.2622 9.13304 20.0941C9.13627 19.926 9.17338 19.7603 9.24215 19.6069C9.31093 19.4534 9.40994 19.3155 9.53328 19.2012L13.2323 15.5012L9.53228 11.8012C9.29809 11.5668 9.16655 11.249 9.16655 10.9177C9.16655 10.5864 9.29809 10.2686 9.53228 10.0342Z" fill="#111827"/>
</svg>
