<svg width="7" height="13" viewBox="0 0 7 13" fill="none" xmlns="http://www.w3.org/2000/svg">
<path d="M0.932892 12.6463C0.82322 12.647 0.7145 12.6259 0.612969 12.5845C0.511438 12.543 0.419092 12.4819 0.341225 12.4047C0.263118 12.3272 0.201122 12.235 0.158815 12.1335C0.116508 12.0319 0.0947266 11.923 0.0947266 11.813C0.0947266 11.703 0.116508 11.5941 0.158815 11.4925C0.201122 11.391 0.263118 11.2988 0.341225 11.2213L4.75789 6.813L0.341225 2.40467C0.263526 2.32697 0.201892 2.23473 0.159842 2.13321C0.117792 2.03169 0.0961483 1.92288 0.0961483 1.813C0.0961483 1.70312 0.117792 1.59431 0.159842 1.49279C0.201892 1.39127 0.263526 1.29903 0.341225 1.22133C0.418924 1.14363 0.511165 1.082 0.612684 1.03995C0.714202 0.997901 0.823009 0.976257 0.932892 0.976257C1.04277 0.976257 1.15158 0.997901 1.2531 1.03995C1.35462 1.082 1.44686 1.14363 1.52456 1.22133L6.52456 6.22133C6.60266 6.2988 6.66466 6.39097 6.70697 6.49252C6.74927 6.59407 6.77106 6.70299 6.77106 6.813C6.77106 6.92301 6.74927 7.03193 6.70697 7.13348C6.66466 7.23503 6.60266 7.3272 6.52456 7.40467L1.52456 12.4047C1.44669 12.4819 1.35434 12.543 1.25281 12.5845C1.15128 12.6259 1.04256 12.647 0.932892 12.6463Z" fill="#333333"/>
</svg>
