<svg width="24" height="24" viewBox="0 0 24 24" fill="none" xmlns="http://www.w3.org/2000/svg">
<path d="M20.75 19.5H3.25001C2.55962 19.5 2 18.9404 2 18.25C2 17.5597 2.55962 17 3.25001 17H20.75C21.4403 17 22 17.5597 22 18.25C22 18.9404 21.4403 19.5 20.75 19.5ZM20.75 13.25H3.25001C2.55962 13.25 2 12.6904 2 12C2 11.3097 2.55962 10.75 3.25001 10.75H20.75C21.4403 10.75 22 11.3096 22 12C22 12.6904 21.4403 13.25 20.75 13.25ZM20.75 7.00001H3.25001C2.55962 7.00001 2 6.44039 2 5.75001C2 5.05962 2.55962 4.5 3.25001 4.5H20.75C21.4403 4.5 22 5.05962 22 5.75001C22 6.44039 21.4403 7.00001 20.75 7.00001Z" fill="#333333"/>
</svg>
