<svg width="16" height="17" viewBox="0 0 16 17" fill="none" xmlns="http://www.w3.org/2000/svg">
<path fill-rule="evenodd" clip-rule="evenodd" d="M3.52851 4.02851C3.78886 3.76816 4.21097 3.76816 4.47132 4.02851L7.99992 7.55711L11.5285 4.02851C11.7889 3.76816 12.211 3.76816 12.4713 4.02851C12.7317 4.28886 12.7317 4.71097 12.4713 4.97132L8.94273 8.49992L12.4713 12.0285C12.7317 12.2889 12.7317 12.711 12.4713 12.9713C12.211 13.2317 11.7889 13.2317 11.5285 12.9713L7.99992 9.44273L4.47132 12.9713C4.21097 13.2317 3.78886 13.2317 3.52851 12.9713C3.26816 12.711 3.26816 12.2889 3.52851 12.0285L7.05711 8.49992L3.52851 4.97132C3.26816 4.71097 3.26816 4.28886 3.52851 4.02851Z" fill="#E03137"/>
</svg>
