
<svg width="24" height="24" viewBox="0 0 24 24" fill="none" xmlns="http://www.w3.org/2000/svg">
<path d="M3 6C3 5.068 3 4.602 3.152 4.235C3.25251 3.99218 3.3999 3.77155 3.58572 3.58572C3.77155 3.3999 3.99218 3.25251 4.235 3.152C4.602 3 5.068 3 6 3H18C18.932 3 19.398 3 19.765 3.152C20.0078 3.25251 20.2284 3.3999 20.4143 3.58572C20.6001 3.77155 20.7475 3.99218 20.848 4.235C21 4.602 21 5.068 21 6V8C21 8.932 21 9.398 20.848 9.765C20.7475 10.0078 20.6001 10.2284 20.4143 10.4143C20.2284 10.6001 20.0078 10.7475 19.765 10.848C19.398 11 18.932 11 18 11H6C5.068 11 4.602 11 4.235 10.848C3.99218 10.7475 3.77155 10.6001 3.58572 10.4143C3.3999 10.2284 3.25251 10.0078 3.152 9.765C3 9.398 3 8.932 3 8V6ZM3 16C3 15.068 3 14.602 3.152 14.235C3.25251 13.9922 3.3999 13.7716 3.58572 13.5857C3.77155 13.3999 3.99218 13.2525 4.235 13.152C4.602 13 5.068 13 6 13H8C8.932 13 9.398 13 9.765 13.152C10.0078 13.2525 10.2284 13.3999 10.4143 13.5857C10.6001 13.7716 10.7475 13.9922 10.848 14.235C11 14.602 11 15.068 11 16V18C11 18.932 11 19.398 10.848 19.765C10.7475 20.0078 10.6001 20.2284 10.4143 20.4143C10.2284 20.6001 10.0078 20.7475 9.765 20.848C9.398 21 8.932 21 8 21H6C5.068 21 4.602 21 4.235 20.848C3.99218 20.7475 3.77155 20.6001 3.58572 20.4143C3.3999 20.2284 3.25251 20.0078 3.152 19.765C3 19.398 3 18.932 3 18V16ZM13.152 14.235C13 14.602 13 15.068 13 16V18C13 18.932 13 19.398 13.152 19.765C13.2525 20.0078 13.3999 20.2284 13.5857 20.4143C13.7716 20.6001 13.9922 20.7475 14.235 20.848C14.602 21 15.068 21 16 21H18C18.932 21 19.398 21 19.765 20.848C20.0078 20.7475 20.2284 20.6001 20.4143 20.4143C20.6001 20.2284 20.7475 20.0078 20.848 19.765C21 19.398 21 18.932 21 18V16C21 15.068 21 14.602 20.848 14.235C20.7475 13.9922 20.6001 13.7716 20.4143 13.5857C20.2284 13.3999 20.0078 13.2525 19.765 13.152C19.398 13 18.932 13 18 13H16C15.068 13 14.602 13 14.235 13.152C13.9922 13.2525 13.7716 13.3999 13.5857 13.5857C13.3999 13.7716 13.2525 13.9922 13.152 14.235Z" fill="#ABABAB"/>
</svg>
