<svg width="70" height="70" viewBox="0 0 70 70" fill="none" xmlns="http://www.w3.org/2000/svg">
<rect width="70" height="70" rx="35" fill="#16C67A" fill-opacity="0.2"/>
<path d="M31.6425 43.0467C31.2708 43.0451 30.9147 42.8976 30.6508 42.6358L24.0775 36.0625C23.8136 35.7971 23.6655 35.438 23.6655 35.0638C23.6655 34.6895 23.8136 34.3304 24.0775 34.065C24.2092 33.9322 24.3659 33.8268 24.5385 33.7549C24.7111 33.683 24.8963 33.646 25.0833 33.646C25.2703 33.646 25.4555 33.683 25.6281 33.7549C25.8008 33.8268 25.9575 33.9322 26.0892 34.065L31.6425 39.6325L43.9108 27.3642C44.0425 27.2314 44.1992 27.126 44.3718 27.0541C44.5445 26.9822 44.7296 26.9451 44.9166 26.9451C45.1037 26.9451 45.2888 26.9822 45.4615 27.0541C45.6341 27.126 45.7908 27.2314 45.9225 27.3642C46.1863 27.6296 46.3344 27.9887 46.3344 28.3629C46.3344 28.7372 46.1863 29.0962 45.9225 29.3617L32.6483 42.6358C32.5159 42.7671 32.359 42.871 32.1864 42.9415C32.0137 43.012 31.8289 43.0478 31.6425 43.0467Z" fill="#16C67A"/>
</svg>
