<svg width="30" height="30" viewBox="0 0 30 30" fill="none" xmlns="http://www.w3.org/2000/svg">
<rect width="30" height="30" rx="8" fill="#F1F2F4"/>
<path fill-rule="evenodd" clip-rule="evenodd" d="M11.0834 10.4167C11.0834 9.68734 11.3731 8.98787 11.8888 8.47214C12.4046 7.95642 13.104 7.66669 13.8334 7.66669H15.6667C16.3961 7.66669 17.0955 7.95642 17.6113 8.47214C18.127 8.98787 18.4167 9.68734 18.4167 10.4167H20.25C20.4932 10.4167 20.7263 10.5133 20.8982 10.6852C21.0701 10.8571 21.1667 11.0902 21.1667 11.3334C21.1667 11.5765 21.0701 11.8096 20.8982 11.9815C20.7263 12.1534 20.4932 12.25 20.25 12.25H19.6505L18.9722 21.0638C18.9457 21.4091 18.7898 21.7317 18.5357 21.967C18.2816 22.2024 17.9481 22.3332 17.6018 22.3334H11.8983C11.5518 22.3334 11.218 22.2027 10.9638 21.9673C10.7095 21.7319 10.5535 21.4092 10.527 21.0638L9.84862 12.25H9.25004C9.00693 12.25 8.77377 12.1534 8.60186 11.9815C8.42995 11.8096 8.33337 11.5765 8.33337 11.3334C8.33337 11.0902 8.42995 10.8571 8.60186 10.6852C8.77377 10.5133 9.00693 10.4167 9.25004 10.4167H11.0834ZM12.5372 13.1209C12.4411 13.1283 12.3475 13.1545 12.2615 13.1982C12.1756 13.2418 12.0991 13.302 12.0365 13.3752C11.9738 13.4484 11.9262 13.5333 11.8964 13.6249C11.8665 13.7165 11.855 13.8131 11.8625 13.9092L12.2521 18.9554C12.2671 19.1494 12.3585 19.3296 12.5062 19.4562C12.654 19.5828 12.846 19.6455 13.04 19.6306C13.234 19.6156 13.4141 19.5242 13.5407 19.3764C13.6673 19.2287 13.7301 19.0367 13.7151 18.8427L13.3246 13.7964C13.3172 13.7004 13.2909 13.6067 13.2473 13.5208C13.2036 13.4348 13.1435 13.3584 13.0703 13.2957C12.9971 13.2331 12.9122 13.1854 12.8206 13.1556C12.729 13.1258 12.6324 13.1143 12.5363 13.1218L12.5372 13.1209ZM16.1755 13.801C16.1937 13.6097 16.2863 13.4332 16.4334 13.3095C16.5805 13.1858 16.7702 13.1247 16.9619 13.1395C17.1535 13.1543 17.3316 13.2437 17.458 13.3885C17.5844 13.5333 17.6488 13.7219 17.6375 13.9138L17.248 18.949C17.2422 19.0463 17.2172 19.1414 17.1743 19.2289C17.1314 19.3164 17.0715 19.3944 16.9981 19.4585C16.9247 19.5225 16.8392 19.5713 16.7468 19.602C16.6543 19.6327 16.5566 19.6446 16.4595 19.6371C16.3624 19.6296 16.2677 19.6028 16.181 19.5584C16.0944 19.5139 16.0174 19.4526 15.9547 19.378C15.892 19.3034 15.8448 19.2171 15.8158 19.1241C15.7868 19.0311 15.7766 18.9333 15.7859 18.8363L16.1755 13.801ZM13.8334 9.50002C13.5903 9.50002 13.3571 9.5966 13.1852 9.76851C13.0133 9.94041 12.9167 10.1736 12.9167 10.4167H16.5834C16.5834 10.1736 16.4868 9.94041 16.3149 9.76851C16.143 9.5966 15.9098 9.50002 15.6667 9.50002H13.8334Z" fill="#111827"/>
</svg>
