<svg width="60" height="61" viewBox="0 0 60 61" fill="none" xmlns="http://www.w3.org/2000/svg">
<rect y="0.5" width="60" height="60" rx="30" fill="#FF1A1A" fill-opacity="0.2"/>
<path d="M31.9976 30.4999L39.5059 23.0057C39.7727 22.7389 39.9225 22.3771 39.9225 21.9999C39.9225 21.6226 39.7727 21.2608 39.5059 20.994C39.2391 20.7273 38.8773 20.5774 38.5001 20.5774C38.1228 20.5774 37.761 20.7273 37.4942 20.994L30.0001 28.5024L22.5059 20.994C22.2391 20.7273 21.8773 20.5774 21.5001 20.5774C21.1228 20.5774 20.761 20.7273 20.4942 20.994C20.2275 21.2608 20.0776 21.6226 20.0776 21.9999C20.0776 22.3771 20.2275 22.7389 20.4942 23.0057L28.0026 30.4999L20.4942 37.994C20.3615 38.1257 20.2561 38.2824 20.1841 38.455C20.1122 38.6277 20.0752 38.8128 20.0752 38.9999C20.0752 39.1869 20.1122 39.372 20.1841 39.5447C20.2561 39.7173 20.3615 39.874 20.4942 40.0057C20.6259 40.1385 20.7826 40.2439 20.9553 40.3158C21.1279 40.3877 21.3131 40.4247 21.5001 40.4247C21.6871 40.4247 21.8723 40.3877 22.0449 40.3158C22.2175 40.2439 22.3742 40.1385 22.5059 40.0057L30.0001 32.4974L37.4942 40.0057C37.6259 40.1385 37.7826 40.2439 37.9553 40.3158C38.1279 40.3877 38.3131 40.4247 38.5001 40.4247C38.6871 40.4247 38.8723 40.3877 39.0449 40.3158C39.2175 40.2439 39.3742 40.1385 39.5059 40.0057C39.6387 39.874 39.7441 39.7173 39.816 39.5447C39.8879 39.372 39.925 39.1869 39.925 38.9999C39.925 38.8128 39.8879 38.6277 39.816 38.455C39.7441 38.2824 39.6387 38.1257 39.5059 37.994L31.9976 30.4999Z" fill="#F91155"/>
</svg>
