<svg xmlns="http://www.w3.org/2000/svg" version="1.1" xmlns:xlink="http://www.w3.org/1999/xlink" width="512" height="512" x="0" y="0" viewBox="0 0 64 64" style="enable-background:new 0 0 512 512" xml:space="preserve"><g><g data-name="Location_Outline Create Outline"><g data-name="19_Flag"><path d="M45 28H33a1 1 0 0 1 0-2h12a1 1 0 0 1 0 2z" fill="#000000" opacity="1" data-original="#000000"></path><path d="M49 28a1 1 0 0 1-1-1V2H16.79l7.062 11.476a1 1 0 0 1 0 1.048L16.79 26H27a1 1 0 0 1 0 2H15a1 1 0 0 1-.852-1.524L21.826 14 14.148 1.524A1 1 0 0 1 15 0h34a1 1 0 0 1 1 1v26a1 1 0 0 1-1 1z" fill="#000000" opacity="1" data-original="#000000"></path><path d="M47 64a1 1 0 0 1-.949-.684l-2-6A1 1 0 0 1 44 57V1a1 1 0 0 1 1-1h4a1 1 0 0 1 1 1v56a1 1 0 0 1-.051.316l-2 6A1 1 0 0 1 47 64zm-1-7.162 1 3 1-3V2h-2z" fill="#000000" opacity="1" data-original="#000000"></path></g></g></g></svg>