<svg width="32" height="33" viewBox="0 0 32 33" fill="none" xmlns="http://www.w3.org/2000/svg">
<path d="M17.1748 16.5001L21.5915 12.0917C21.7484 11.9348 21.8365 11.722 21.8365 11.5001C21.8365 11.2782 21.7484 11.0653 21.5915 10.9084C21.4345 10.7515 21.2217 10.6633 20.9998 10.6633C20.7779 10.6633 20.565 10.7515 20.4081 10.9084L15.9998 15.3251L11.5915 10.9084C11.4345 10.7515 11.2217 10.6633 10.9998 10.6633C10.7779 10.6633 10.565 10.7515 10.4081 10.9084C10.2512 11.0653 10.163 11.2782 10.163 11.5001C10.163 11.722 10.2512 11.9348 10.4081 12.0917L14.8248 16.5001L10.4081 20.9084C10.33 20.9859 10.268 21.078 10.2257 21.1796C10.1834 21.2811 10.1616 21.3901 10.1616 21.5001C10.1616 21.6101 10.1834 21.719 10.2257 21.8206C10.268 21.9221 10.33 22.0143 10.4081 22.0917C10.4856 22.1698 10.5778 22.2318 10.6793 22.2741C10.7809 22.3165 10.8898 22.3382 10.9998 22.3382C11.1098 22.3382 11.2187 22.3165 11.3203 22.2741C11.4218 22.2318 11.514 22.1698 11.5915 22.0917L15.9998 17.6751L20.4081 22.0917C20.4856 22.1698 20.5778 22.2318 20.6793 22.2741C20.7809 22.3165 20.8898 22.3382 20.9998 22.3382C21.1098 22.3382 21.2187 22.3165 21.3203 22.2741C21.4218 22.2318 21.514 22.1698 21.5915 22.0917C21.6696 22.0143 21.7316 21.9221 21.7739 21.8206C21.8162 21.719 21.838 21.6101 21.838 21.5001C21.838 21.3901 21.8162 21.2811 21.7739 21.1796C21.7316 21.078 21.6696 20.9859 21.5915 20.9084L17.1748 16.5001Z" fill="black"/>
<rect x="0.5" y="1" width="31" height="31" rx="15.5" stroke="#ECECEC"/>
</svg>
