<svg width="16" height="16" viewBox="0 0 16 16" fill="none" xmlns="http://www.w3.org/2000/svg">
<path d="M7.99996 11.0133C7.91222 11.0138 7.82525 10.997 7.74402 10.9638C7.6628 10.9306 7.58892 10.8818 7.52663 10.82L3.52663 6.81997C3.46447 6.75781 3.41516 6.68402 3.38152 6.60281C3.34788 6.52159 3.33057 6.43455 3.33057 6.34664C3.33057 6.25873 3.34788 6.17169 3.38152 6.09047C3.41516 6.00926 3.46447 5.93547 3.52663 5.87331C3.58879 5.81115 3.66258 5.76184 3.74379 5.7282C3.82501 5.69456 3.91205 5.67725 3.99996 5.67725C4.08787 5.67725 4.17491 5.69456 4.25613 5.7282C4.33734 5.76184 4.41114 5.81115 4.47329 5.87331L7.99996 9.40664L11.5266 5.87331C11.6522 5.74777 11.8224 5.67725 12 5.67725C12.1775 5.67725 12.3478 5.74777 12.4733 5.87331C12.5988 5.99884 12.6694 6.16911 12.6694 6.34664C12.6694 6.52418 12.5988 6.69444 12.4733 6.81997L8.47329 10.82C8.411 10.8818 8.33712 10.9306 8.2559 10.9638C8.17467 10.997 8.0877 11.0138 7.99996 11.0133Z" fill="#333333"/>
</svg>
