<svg width="60" height="61" viewBox="0 0 60 61" fill="none" xmlns="http://www.w3.org/2000/svg">
<rect y="0.5" width="60" height="60" rx="30" fill="#16C67A" fill-opacity="0.2"/>
<path d="M26.643 38.5466C26.2713 38.545 25.9152 38.3975 25.6513 38.1358L19.078 31.5624C18.8141 31.297 18.666 30.938 18.666 30.5637C18.666 30.1894 18.8141 29.8304 19.078 29.5649C19.2097 29.4322 19.3664 29.3268 19.539 29.2549C19.7116 29.1829 19.8968 29.1459 20.0838 29.1459C20.2708 29.1459 20.456 29.1829 20.6286 29.2549C20.8013 29.3268 20.9579 29.4322 21.0896 29.5649L26.643 35.1324L38.9113 22.8641C39.043 22.7313 39.1997 22.6259 39.3723 22.554C39.545 22.4821 39.7301 22.4451 39.9171 22.4451C40.1042 22.4451 40.2893 22.4821 40.462 22.554C40.6346 22.6259 40.7913 22.7313 40.923 22.8641C41.1868 23.1295 41.3349 23.4886 41.3349 23.8629C41.3349 24.2371 41.1868 24.5962 40.923 24.8616L27.6488 38.1358C27.5164 38.2671 27.3594 38.371 27.1868 38.4415C27.0142 38.512 26.8294 38.5477 26.643 38.5466Z" fill="#16C67A"/>
</svg>
