<svg width="60" height="61" viewBox="0 0 60 61" fill="none" xmlns="http://www.w3.org/2000/svg">
<rect y="0.5" width="60" height="60" rx="30" fill="#FF1A1A" fill-opacity="0.2"/>
<path d="M43.2348 28.305L44.4098 27.92C44.5357 27.8788 44.6401 27.7893 44.7001 27.6712C44.7601 27.5531 44.7708 27.416 44.7298 27.29L43.7998 24.44C43.7799 24.3772 43.7478 24.3189 43.7054 24.2686C43.6629 24.2182 43.6109 24.1768 43.5523 24.1466C43.4938 24.1164 43.4299 24.098 43.3642 24.0926C43.2986 24.0872 43.2325 24.0948 43.1698 24.115L41.9998 24.5C41.8882 24.5361 41.7675 24.5319 41.6587 24.488C41.55 24.4441 41.4601 24.3634 41.4048 24.26C40.8761 23.2884 40.2241 22.3893 39.4648 21.585C39.3834 21.5005 39.3343 21.3902 39.3261 21.2732C39.3179 21.1562 39.351 21.04 39.4198 20.945L40.1448 19.945C40.1837 19.8919 40.2117 19.8316 40.2272 19.7676C40.2427 19.7036 40.2454 19.6372 40.2352 19.5722C40.225 19.5071 40.202 19.4447 40.1676 19.3886C40.1332 19.3324 40.0881 19.2837 40.0348 19.245L37.6048 17.5C37.5517 17.4611 37.4914 17.4331 37.4274 17.4176C37.3634 17.4021 37.297 17.3994 37.2319 17.4096C37.1669 17.4198 37.1045 17.4428 37.0484 17.4772C36.9922 17.5116 36.9434 17.5567 36.9048 17.61L36.1798 18.61C36.1106 18.7053 36.0099 18.7731 35.8956 18.8015C35.7812 18.8299 35.6605 18.8169 35.5548 18.765C34.556 18.2967 33.5005 17.9605 32.4148 17.765C32.2974 17.7448 32.1911 17.6833 32.115 17.5916C32.0389 17.4999 31.9981 17.3841 31.9998 17.265V16C31.9998 15.8674 31.9471 15.7402 31.8533 15.6464C31.7596 15.5527 31.6324 15.5 31.4998 15.5H28.4998C28.3672 15.5 28.24 15.5527 28.1462 15.6464C28.0525 15.7402 27.9998 15.8674 27.9998 16V17.235C28.0015 17.3541 27.9607 17.4699 27.8846 17.5616C27.8085 17.6533 27.7022 17.7148 27.5848 17.735C26.4984 17.9353 25.4429 18.2765 24.4448 18.75C24.3391 18.8019 24.2184 18.8149 24.104 18.7865C23.9897 18.7581 23.889 18.6903 23.8198 18.595L23.0948 17.595C23.0145 17.4897 22.8957 17.4205 22.7644 17.4027C22.6332 17.3849 22.5003 17.4199 22.3948 17.5L19.9698 19.245C19.9165 19.2837 19.8714 19.3324 19.837 19.3886C19.8026 19.4447 19.7796 19.5071 19.7694 19.5722C19.7592 19.6372 19.7619 19.7036 19.7774 19.7676C19.7929 19.8316 19.8209 19.8919 19.8598 19.945L20.5848 20.945C20.6535 21.04 20.6867 21.1562 20.6785 21.2732C20.6703 21.3902 20.6212 21.5005 20.5398 21.585C19.7805 22.3893 19.1285 23.2884 18.5998 24.26C18.5444 24.3645 18.4536 24.446 18.3438 24.49C18.2339 24.5339 18.112 24.5375 17.9998 24.5L16.8248 24.115C16.7621 24.0948 16.696 24.0872 16.6304 24.0926C16.5647 24.098 16.5008 24.1164 16.4422 24.1466C16.3837 24.1768 16.3317 24.2182 16.2892 24.2686C16.2468 24.3189 16.2147 24.3772 16.1948 24.44L15.2648 27.29C15.2238 27.416 15.2344 27.5531 15.2944 27.6712C15.3544 27.7893 15.4589 27.8788 15.5848 27.92L16.7598 28.305C16.8715 28.3414 16.9667 28.416 17.0289 28.5157C17.0911 28.6153 17.1162 28.7337 17.0998 28.85C16.9596 29.9455 16.9596 31.0545 17.0998 32.15C17.1162 32.2663 17.0911 32.3847 17.0289 32.4843C16.9667 32.584 16.8715 32.6586 16.7598 32.695L15.5848 33.08C15.4589 33.1212 15.3544 33.2107 15.2944 33.3288C15.2344 33.4469 15.2238 33.584 15.2648 33.71L16.1948 36.56C16.2147 36.6228 16.2468 36.6811 16.2892 36.7314C16.3317 36.7818 16.3837 36.8232 16.4422 36.8534C16.5008 36.8836 16.5647 36.902 16.6304 36.9074C16.696 36.9128 16.7621 36.9052 16.8248 36.885L17.9998 36.5C18.1114 36.4639 18.2321 36.4681 18.3409 36.512C18.4496 36.5559 18.5395 36.6366 18.5948 36.74C19.1235 37.7116 19.7755 38.6107 20.5348 39.415C20.6162 39.4995 20.6653 39.6098 20.6735 39.7268C20.6817 39.8438 20.6485 39.96 20.5798 40.055L19.8548 41.055C19.8159 41.1081 19.7879 41.1684 19.7724 41.2324C19.7569 41.2964 19.7542 41.3628 19.7644 41.4278C19.7746 41.4929 19.7976 41.5553 19.832 41.6114C19.8664 41.6676 19.9115 41.7163 19.9648 41.755L22.3948 43.5C22.4479 43.5389 22.5082 43.5669 22.5722 43.5824C22.6362 43.5979 22.7026 43.6006 22.7676 43.5904C22.8327 43.5802 22.8951 43.5572 22.9512 43.5228C23.0073 43.4884 23.0561 43.4433 23.0948 43.39L23.8198 42.39C23.889 42.2947 23.9897 42.2269 24.104 42.1985C24.2184 42.1701 24.3391 42.1831 24.4448 42.235C25.4436 42.7033 26.4991 43.0395 27.5848 43.235C27.7022 43.2552 27.8085 43.3167 27.8846 43.4084C27.9607 43.5001 28.0015 43.6159 27.9998 43.735V45C27.9998 45.1326 28.0525 45.2598 28.1462 45.3536C28.24 45.4473 28.3672 45.5 28.4998 45.5H31.4998C31.6324 45.5 31.7596 45.4473 31.8533 45.3536C31.9471 45.2598 31.9998 45.1326 31.9998 45V43.765C31.9981 43.6459 32.0389 43.5301 32.115 43.4384C32.1911 43.3467 32.2974 43.2852 32.4148 43.265C33.5005 43.0695 34.556 42.7333 35.5548 42.265C35.6605 42.2131 35.7812 42.2001 35.8956 42.2285C36.0099 42.2569 36.1106 42.3247 36.1798 42.42L36.9048 43.42C36.9434 43.4733 36.9922 43.5184 37.0484 43.5528C37.1045 43.5872 37.1669 43.6102 37.2319 43.6204C37.297 43.6306 37.3634 43.6279 37.4274 43.6124C37.4914 43.5969 37.5517 43.5689 37.6048 43.53L40.0298 41.77C40.0831 41.7313 40.1282 41.6826 40.1626 41.6264C40.197 41.5703 40.22 41.5079 40.2302 41.4429C40.2404 41.3778 40.2377 41.3114 40.2222 41.2474C40.2067 41.1834 40.1787 41.1231 40.1398 41.07L39.4148 40.07C39.346 39.975 39.3129 39.8588 39.3211 39.7418C39.3293 39.6248 39.3784 39.5145 39.4598 39.43C40.2191 38.6257 40.8711 37.7266 41.3998 36.755C41.4528 36.6478 41.5424 36.5631 41.6525 36.5163C41.7626 36.4695 41.8858 36.4637 41.9998 36.5L43.1748 36.885C43.2375 36.9052 43.3036 36.9128 43.3692 36.9074C43.4349 36.902 43.4988 36.8836 43.5573 36.8534C43.6159 36.8232 43.6679 36.7818 43.7104 36.7314C43.7528 36.6811 43.7849 36.6228 43.8048 36.56L44.7348 33.71C44.7758 33.584 44.7651 33.4469 44.7051 33.3288C44.6451 33.2107 44.5407 33.1212 44.4148 33.08L43.2398 32.695C43.1281 32.6586 43.0329 32.584 42.9707 32.4843C42.9085 32.3847 42.8834 32.2663 42.8998 32.15C43.04 31.0545 43.04 29.9455 42.8998 28.85C42.8831 28.7343 42.9075 28.6165 42.9687 28.5169C43.0299 28.4174 43.1241 28.3424 43.2348 28.305ZM29.9998 41C27.9231 41 25.893 40.3842 24.1663 39.2304C22.4396 38.0767 21.0938 36.4368 20.2991 34.5182C19.5043 32.5996 19.2964 30.4884 19.7015 28.4516C20.1067 26.4148 21.1067 24.5438 22.5752 23.0754C24.0436 21.6069 25.9145 20.6069 27.9513 20.2018C29.9881 19.7966 32.0993 20.0045 34.018 20.7993C35.9366 21.594 37.5765 22.9398 38.7302 24.6665C39.884 26.3932 40.4998 28.4233 40.4998 30.5C40.4998 33.2848 39.3935 35.9555 37.4244 37.9246C35.4553 39.8938 32.7846 41 29.9998 41Z" fill="#F91155"/>
<path d="M29.5 32.5H30.5L32 24H28L29.5 32.5Z" fill="#F91155"/>
<path d="M30 37C30.8284 37 31.5 36.3284 31.5 35.5C31.5 34.6716 30.8284 34 30 34C29.1716 34 28.5 34.6716 28.5 35.5C28.5 36.3284 29.1716 37 30 37Z" fill="#F91155"/>
</svg>
