<svg width="180" height="38" viewBox="0 0 180 38" fill="none" xmlns="http://www.w3.org/2000/svg">
<g clip-path="url(#clip0_5_1219)">
<path d="M2.67505 24.6303V17.208H0.714722V13.3844H2.67505V9.41089H7.30143V13.3844H11.1437V17.208H7.30143V23.8805C7.30143 24.9302 7.77191 25.38 8.79129 25.38C9.65383 25.38 10.438 25.1551 11.0653 24.8552V28.4538C10.1243 28.9787 8.94811 29.3535 7.37985 29.3535C4.55697 29.3535 2.67505 28.3039 2.67505 24.6303Z" fill="black"/>
<path d="M13.3386 21.2565C13.3386 16.7581 16.7104 13.0845 21.4152 13.0845C26.9041 13.0845 29.4133 17.133 29.4133 21.6313C29.4133 22.0062 29.4133 22.381 29.3349 22.8309H17.965C18.4355 24.8551 19.9253 25.9047 21.9641 25.9047C23.5323 25.9047 24.6301 25.4549 25.9632 24.3303L28.6292 26.5795C27.0609 28.3788 24.8654 29.5034 21.9641 29.5034C16.9456 29.4284 13.3386 26.1297 13.3386 21.2565ZM24.8654 20.0569C24.5517 18.0326 23.3755 16.7581 21.4152 16.7581C19.4549 16.7581 18.2002 18.1076 17.8866 20.0569H24.8654Z" fill="black"/>
<path d="M36.3139 21.1064L30.7466 13.3843H35.765L38.8232 17.9576L41.8813 13.3843H46.7429L41.1756 21.0315L46.9782 29.0535H41.9597L38.6663 24.1803L35.373 29.0535H30.5114L36.3139 21.1064Z" fill="black"/>
<path d="M49.8008 13.3844H54.4272V15.6335C55.525 14.284 56.858 13.0845 59.2104 13.0845C62.739 13.0845 64.7777 15.3336 64.7777 18.9323V29.0536H60.1513V20.3568C60.1513 18.2576 59.132 17.133 57.3285 17.133C55.5249 17.133 54.4272 18.1826 54.4272 20.3568V29.1285H49.8008V13.3844Z" fill="black"/>
<path d="M68.0721 21.2565C68.0721 16.7581 71.836 13.0845 77.0113 13.0845C82.1081 13.0845 85.872 16.6831 85.872 21.2565C85.872 25.7548 82.1081 29.4284 76.9328 29.4284C71.836 29.4284 68.0721 25.8298 68.0721 21.2565ZM81.2456 21.2565C81.2456 18.9323 79.5205 16.9081 76.9328 16.9081C74.2668 16.9081 72.6985 18.8573 72.6985 21.2565C72.6985 23.5806 74.4236 25.6048 77.0113 25.6048C79.6773 25.6048 81.2456 23.6556 81.2456 21.2565Z" fill="black"/>
<path d="M89.1643 13.3844H93.7907V15.6335C94.8885 14.284 96.2999 13.0845 98.6523 13.0845C100.769 13.0845 102.416 13.9841 103.279 15.5586C104.69 13.9841 106.415 13.0845 108.689 13.0845C112.139 13.0845 114.257 15.1087 114.257 18.8573V29.0536H109.63V20.3568C109.63 18.2576 108.689 17.133 106.886 17.133C105.161 17.133 104.063 18.1826 104.063 20.3568V29.1285H99.4364V20.3568C99.4364 18.2576 98.4955 17.133 96.692 17.133C94.9669 17.133 93.8691 18.1826 93.8691 20.3568V29.1285H89.2427V13.3844H89.1643Z" fill="black"/>
<path d="M117.237 24.5554C117.237 21.1067 119.981 19.5323 123.824 19.5323C125.47 19.5323 126.647 19.8322 127.823 20.207V19.9072C127.823 18.0328 126.647 17.0582 124.294 17.0582C122.491 17.0582 121.236 17.3581 119.746 17.8829L118.57 14.5091C120.373 13.7594 122.177 13.2346 124.921 13.2346C127.431 13.2346 129.313 13.9094 130.489 14.959C131.743 16.1585 132.292 17.8829 132.292 19.9821V29.0538H127.823V27.3294C126.725 28.529 125.157 29.3537 122.883 29.3537C119.825 29.3537 117.237 27.7043 117.237 24.5554ZM127.98 23.5808V22.7561C127.195 22.3812 126.176 22.1563 125 22.1563C123.04 22.1563 121.785 22.906 121.785 24.4055C121.785 25.605 122.804 26.2798 124.294 26.2798C126.49 26.2798 127.98 25.1552 127.98 23.5808Z" fill="black"/>
<path d="M136.369 13.3842H140.996V16.533C141.937 14.3588 143.505 12.9343 146.249 13.0843V17.7326H146.014C142.956 17.7326 140.996 19.5319 140.996 23.2805V29.0534H136.369V13.3842Z" fill="black"/>
<path d="M149.934 24.6303V17.208H147.974V13.3844H149.934V9.41089H154.561V13.3844H158.403V17.208H154.561V23.8805C154.561 24.9302 155.031 25.38 156.051 25.38C156.913 25.38 157.697 25.1551 158.325 24.8552V28.4538C157.384 28.9787 156.207 29.3535 154.639 29.3535C151.816 29.3535 149.934 28.3039 149.934 24.6303Z" fill="black"/>
<path d="M179.653 12.035L177.301 15.8586L172.596 13.2346V18.4827H167.891V13.2346L163.187 15.8586L160.834 12.035L165.617 9.411L160.913 6.78697L163.187 2.96339L167.891 5.58742V0.339355H172.596V5.58742L177.301 2.96339L179.575 6.78697L174.87 9.411L179.653 12.035Z" fill="black"/>
</g>
<defs>
<clipPath id="clip0_5_1219">
<rect width="180" height="37.9339" fill="white" transform="translate(0 0.032959)"/>
</clipPath>
</defs>
</svg>
