<svg width="44" height="44" viewBox="0 0 44 44" fill="none" xmlns="http://www.w3.org/2000/svg">
<rect width="44" height="44" rx="22" fill="#F7F7F7"/>
<path fill-rule="evenodd" clip-rule="evenodd" d="M22 12C19.2386 12 17 14.2386 17 17C17 19.7614 19.2386 22 22 22C24.7614 22 27 19.7614 27 17C27 14.2386 24.7614 12 22 12ZM19 17C19 15.3432 20.3431 14 22 14C23.6569 14 25 15.3432 25 17C25 18.6568 23.6569 20 22 20C20.3431 20 19 18.6568 19 17Z" fill="#2B2D33"/>
<path d="M22.0001 23C16.5897 23 13.5 27.5983 13.5 32H15.5C15.5 28.4017 17.9731 25 22.0001 25C26.0271 25 28.5 28.4017 28.5 32H30.5C30.5 27.5983 27.4106 23 22.0001 23Z" fill="#2B2D33"/>
</svg>
