<svg width="30" height="30" viewBox="0 0 30 30" fill="none" xmlns="http://www.w3.org/2000/svg">
<rect width="30" height="30" rx="8" fill="#F1F2F4"/>
<g clip-path="url(#clip0_0_3190)">
<path d="M15.0001 12.8182C13.7964 12.8182 12.8182 13.7963 12.8182 15C12.8182 16.2036 13.7964 17.1818 15.0001 17.1818C16.2037 17.1818 17.1819 16.2036 17.1819 15C17.1819 13.7963 16.2037 12.8182 15.0001 12.8182Z" fill="#111827"/>
<path d="M15 9.54547C11.3636 9.54547 8.25819 11.8073 7 15C8.25819 18.1927 11.3636 20.4546 15 20.4546C18.64 20.4546 21.7418 18.1927 23 15C21.7418 11.8073 18.64 9.54547 15 9.54547ZM15 18.6364C12.9927 18.6364 11.3636 17.0073 11.3636 15C11.3636 12.9927 12.9927 11.3636 15 11.3636C17.0073 11.3636 18.6364 12.9927 18.6364 15C18.6364 17.0073 17.0073 18.6364 15 18.6364Z" fill="#111827"/>
</g>
<defs>
<clipPath id="clip0_0_3190">
<rect width="16" height="16" fill="white" transform="translate(7 7)"/>
</clipPath>
</defs>
</svg>
