<svg width="36" height="36" viewBox="0 0 36 36" fill="none" xmlns="http://www.w3.org/2000/svg">
<path d="M13.0068 18C13.0068 15.2387 15.246 12.9996 18.009 12.9996C20.772 12.9996 23.0124 15.2387 23.0124 18C23.0124 20.7613 20.772 23.0004 18.009 23.0004C15.246 23.0004 13.0068 20.7613 13.0068 18ZM10.3021 18C10.3021 22.254 13.7524 25.7023 18.009 25.7023C22.2656 25.7023 25.7159 22.254 25.7159 18C25.7159 13.746 22.2656 10.2977 18.009 10.2977C13.7524 10.2977 10.3021 13.746 10.3021 18ZM24.22 9.99228C24.2198 10.3483 24.3253 10.6963 24.5231 10.9924C24.7209 11.2885 25.0021 11.5193 25.3311 11.6557C25.6602 11.7921 26.0223 11.8279 26.3717 11.7586C26.7211 11.6892 27.0421 11.5179 27.2941 11.2663C27.5461 11.0147 27.7177 10.694 27.7874 10.3449C27.857 9.99573 27.8215 9.6338 27.6853 9.30483C27.5491 8.97587 27.3184 8.69466 27.0223 8.49675C26.7262 8.29885 26.378 8.19314 26.0218 8.193H26.021C25.5436 8.19322 25.0857 8.38284 24.748 8.7202C24.4103 9.05756 24.2204 9.51508 24.22 9.99228ZM11.9454 30.2096C10.482 30.143 9.68669 29.8994 9.15813 29.6936C8.45739 29.421 7.95741 29.0963 7.43174 28.5716C6.90606 28.047 6.58067 27.5478 6.30906 26.8475C6.10302 26.3195 5.85927 25.5244 5.79275 24.0619C5.71999 22.4808 5.70546 22.0058 5.70546 18.0001C5.70546 13.9944 5.72119 13.5208 5.79275 11.9383C5.85939 10.4759 6.10494 9.68232 6.30906 9.15276C6.58187 8.45244 6.90678 7.95276 7.43174 7.4274C7.95669 6.90204 8.45619 6.57684 9.15813 6.3054C9.68645 6.09948 10.482 5.85588 11.9454 5.7894C13.5274 5.71668 14.0027 5.70216 18.009 5.70216C22.0153 5.70216 22.491 5.71788 24.0744 5.7894C25.5378 5.856 26.3318 6.1014 26.8617 6.3054C27.5624 6.57684 28.0624 6.90276 28.5881 7.4274C29.1137 7.95204 29.4379 8.45244 29.7107 9.15276C29.9168 9.68076 30.1605 10.4759 30.227 11.9383C30.2998 13.5208 30.3143 13.9944 30.3143 18.0001C30.3143 22.0058 30.2998 22.4795 30.227 24.0619C30.1604 25.5244 29.9155 26.3192 29.7107 26.8475C29.4379 27.5478 29.113 28.0475 28.5881 28.5716C28.0631 29.0958 27.5624 29.421 26.8617 29.6936C26.3334 29.8996 25.5378 30.1432 24.0744 30.2096C22.4924 30.2824 22.0171 30.2969 18.009 30.2969C14.0009 30.2969 13.527 30.2824 11.9454 30.2096ZM11.8211 3.09084C10.2233 3.16356 9.13148 3.41676 8.17798 3.78756C7.19051 4.17048 6.35457 4.6842 5.51923 5.51772C4.68389 6.35124 4.17118 7.188 3.78803 8.17488C3.41701 9.1284 3.16366 10.219 3.09089 11.8158C3.01693 13.4152 3 13.9265 3 18C3 22.0735 3.01693 22.5848 3.09089 24.1842C3.16366 25.7812 3.41701 26.8716 3.78803 27.8251C4.17118 28.8114 4.68401 29.6491 5.51923 30.4823C6.35445 31.3154 7.19051 31.8284 8.17798 32.2124C9.13328 32.5832 10.2233 32.8364 11.8211 32.9092C13.4222 32.9819 13.933 33 18.009 33C22.085 33 22.5966 32.9831 24.1969 32.9092C25.7948 32.8364 26.8859 32.5832 27.84 32.2124C28.8269 31.8284 29.6634 31.3158 30.4988 30.4823C31.3341 29.6488 31.8457 28.8114 32.23 27.8251C32.601 26.8716 32.8555 25.781 32.9271 24.1842C32.9999 22.5836 33.0168 22.0735 33.0168 18C33.0168 13.9265 32.9999 13.4152 32.9271 11.8158C32.8543 10.2188 32.601 9.1278 32.23 8.17488C31.8457 7.1886 31.3328 6.35256 30.4988 5.51772C29.6647 4.68288 28.8269 4.17048 27.8412 3.78756C26.8859 3.41676 25.7947 3.16236 24.1981 3.09084C22.5978 3.01812 22.0862 3 18.0102 3C13.9342 3 13.4222 3.01692 11.8211 3.09084Z" fill="url(#paint0_radial_127_626)"/>
<path d="M13.0068 18C13.0068 15.2387 15.246 12.9996 18.009 12.9996C20.772 12.9996 23.0124 15.2387 23.0124 18C23.0124 20.7613 20.772 23.0004 18.009 23.0004C15.246 23.0004 13.0068 20.7613 13.0068 18ZM10.3021 18C10.3021 22.254 13.7524 25.7023 18.009 25.7023C22.2656 25.7023 25.7159 22.254 25.7159 18C25.7159 13.746 22.2656 10.2977 18.009 10.2977C13.7524 10.2977 10.3021 13.746 10.3021 18ZM24.22 9.99228C24.2198 10.3483 24.3253 10.6963 24.5231 10.9924C24.7209 11.2885 25.0021 11.5193 25.3311 11.6557C25.6602 11.7921 26.0223 11.8279 26.3717 11.7586C26.7211 11.6892 27.0421 11.5179 27.2941 11.2663C27.5461 11.0147 27.7177 10.694 27.7874 10.3449C27.857 9.99573 27.8215 9.6338 27.6853 9.30483C27.5491 8.97587 27.3184 8.69466 27.0223 8.49675C26.7262 8.29885 26.378 8.19314 26.0218 8.193H26.021C25.5436 8.19322 25.0857 8.38284 24.748 8.7202C24.4103 9.05756 24.2204 9.51508 24.22 9.99228ZM11.9454 30.2096C10.482 30.143 9.68669 29.8994 9.15813 29.6936C8.45739 29.421 7.95741 29.0963 7.43174 28.5716C6.90606 28.047 6.58067 27.5478 6.30906 26.8475C6.10302 26.3195 5.85927 25.5244 5.79275 24.0619C5.71999 22.4808 5.70546 22.0058 5.70546 18.0001C5.70546 13.9944 5.72119 13.5208 5.79275 11.9383C5.85939 10.4759 6.10494 9.68232 6.30906 9.15276C6.58187 8.45244 6.90678 7.95276 7.43174 7.4274C7.95669 6.90204 8.45619 6.57684 9.15813 6.3054C9.68645 6.09948 10.482 5.85588 11.9454 5.7894C13.5274 5.71668 14.0027 5.70216 18.009 5.70216C22.0153 5.70216 22.491 5.71788 24.0744 5.7894C25.5378 5.856 26.3318 6.1014 26.8617 6.3054C27.5624 6.57684 28.0624 6.90276 28.5881 7.4274C29.1137 7.95204 29.4379 8.45244 29.7107 9.15276C29.9168 9.68076 30.1605 10.4759 30.227 11.9383C30.2998 13.5208 30.3143 13.9944 30.3143 18.0001C30.3143 22.0058 30.2998 22.4795 30.227 24.0619C30.1604 25.5244 29.9155 26.3192 29.7107 26.8475C29.4379 27.5478 29.113 28.0475 28.5881 28.5716C28.0631 29.0958 27.5624 29.421 26.8617 29.6936C26.3334 29.8996 25.5378 30.1432 24.0744 30.2096C22.4924 30.2824 22.0171 30.2969 18.009 30.2969C14.0009 30.2969 13.527 30.2824 11.9454 30.2096ZM11.8211 3.09084C10.2233 3.16356 9.13148 3.41676 8.17798 3.78756C7.19051 4.17048 6.35457 4.6842 5.51923 5.51772C4.68389 6.35124 4.17118 7.188 3.78803 8.17488C3.41701 9.1284 3.16366 10.219 3.09089 11.8158C3.01693 13.4152 3 13.9265 3 18C3 22.0735 3.01693 22.5848 3.09089 24.1842C3.16366 25.7812 3.41701 26.8716 3.78803 27.8251C4.17118 28.8114 4.68401 29.6491 5.51923 30.4823C6.35445 31.3154 7.19051 31.8284 8.17798 32.2124C9.13328 32.5832 10.2233 32.8364 11.8211 32.9092C13.4222 32.9819 13.933 33 18.009 33C22.085 33 22.5966 32.9831 24.1969 32.9092C25.7948 32.8364 26.8859 32.5832 27.84 32.2124C28.8269 31.8284 29.6634 31.3158 30.4988 30.4823C31.3341 29.6488 31.8457 28.8114 32.23 27.8251C32.601 26.8716 32.8555 25.781 32.9271 24.1842C32.9999 22.5836 33.0168 22.0735 33.0168 18C33.0168 13.9265 32.9999 13.4152 32.9271 11.8158C32.8543 10.2188 32.601 9.1278 32.23 8.17488C31.8457 7.1886 31.3328 6.35256 30.4988 5.51772C29.6647 4.68288 28.8269 4.17048 27.8412 3.78756C26.8859 3.41676 25.7947 3.16236 24.1981 3.09084C22.5978 3.01812 22.0862 3 18.0102 3C13.9342 3 13.4222 3.01692 11.8211 3.09084Z" fill="url(#paint1_radial_127_626)"/>
<defs>
<radialGradient id="paint0_radial_127_626" cx="0" cy="0" r="1" gradientUnits="userSpaceOnUse" gradientTransform="translate(6.98807 33.1417) scale(39.186 39.1625)">
<stop offset="0.09" stop-color="#FA8F21"/>
<stop offset="0.78" stop-color="#D82D7E"/>
</radialGradient>
<radialGradient id="paint1_radial_127_626" cx="0" cy="0" r="1" gradientUnits="userSpaceOnUse" gradientTransform="translate(21.2046 34.4857) scale(30.884 30.8654)">
<stop offset="0.64" stop-color="#8C3AAA" stop-opacity="0"/>
<stop offset="1" stop-color="#8C3AAA"/>
</radialGradient>
</defs>
</svg>
