<svg width="36" height="36" viewBox="0 0 36 36" fill="none" xmlns="http://www.w3.org/2000/svg">
<path d="M18.009 33.018C26.2982 33.018 33.018 26.2982 33.018 18.009C33.018 9.71977 26.2982 3 18.009 3C9.71977 3 3 9.71977 3 18.009C3 26.2982 9.71977 33.018 18.009 33.018Z" fill="#34AADF"/>
<path d="M9.43412 17.6803C9.43412 17.6803 16.8688 14.5173 19.4473 13.4035C20.4357 12.9581 23.7878 11.5325 23.7878 11.5325C23.7878 11.5325 25.3349 10.9088 25.206 12.4235C25.163 13.0472 24.8192 15.2301 24.4754 17.5912C23.9597 20.9324 23.401 24.5854 23.401 24.5854C23.401 24.5854 23.3151 25.6101 22.5845 25.7883C21.8539 25.9664 20.6506 25.1646 20.4357 24.9864C20.2638 24.8527 17.2126 22.848 16.0952 21.8679C15.7944 21.6006 15.4506 21.0661 16.1382 20.4423C17.6853 18.9722 19.5332 17.1457 20.6506 15.9874C21.1663 15.4528 21.682 14.2054 19.5332 15.7201C16.482 17.903 13.4738 19.9523 13.4738 19.9523C13.4738 19.9523 12.7862 20.3978 11.4969 19.9968C10.2076 19.5959 8.70349 19.0613 8.70349 19.0613C8.70349 19.0613 7.67215 18.3931 9.43412 17.6803Z" fill="white"/>
</svg>
