<svg xmlns="http://www.w3.org/2000/svg" version="1.1" xmlns:xlink="http://www.w3.org/1999/xlink" width="512" height="512" x="0" y="0" viewBox="0 0 512 512" style="enable-background:new 0 0 512 512" xml:space="preserve"><g><path d="M256 0C114.841 0 0 114.841 0 256s114.841 256 256 256 256-114.841 256-256S397.159 0 256 0zm204.717 165.12h-99.653c-4.967-31.223-12.512-59.981-22.374-84.633-6.125-15.311-13.003-28.575-20.487-39.692 63.736 18.451 115.856 64.511 142.514 124.325zM480 256a223.45 223.45 0 0 1-7.869 58.88h-106.97c1.876-19.08 2.846-38.812 2.846-58.88s-.97-39.8-2.846-58.88h106.97A223.45 223.45 0 0 1 480 256zM256 480c-18.051 0-37.856-22.569-52.979-60.372-8.486-21.213-15.109-45.878-19.679-72.748h145.315c-4.57 26.87-11.193 51.535-19.679 72.748C293.856 457.431 274.051 480 256 480zm-77.013-165.12c-1.972-18.977-2.995-38.723-2.995-58.88s1.023-39.903 2.995-58.88h154.027c1.972 18.977 2.995 38.723 2.995 58.88s-1.023 39.903-2.995 58.88zM32 256a223.45 223.45 0 0 1 7.869-58.88h106.97c-1.876 19.08-2.846 38.812-2.846 58.88s.97 39.8 2.846 58.88H39.868A223.492 223.492 0 0 1 32 256zM256 32c18.051 0 37.856 22.569 52.979 60.372 8.486 21.213 15.11 45.878 19.679 72.748H183.342c4.57-26.87 11.193-51.535 19.679-72.748C218.144 54.569 237.949 32 256 32zm-62.203 8.795c-7.483 11.117-14.362 24.381-20.487 39.692-9.862 24.652-17.407 53.41-22.374 84.633H51.283c26.658-59.814 78.779-105.874 142.514-124.325zM51.283 346.88h99.653c4.967 31.223 12.512 59.981 22.374 84.633 6.125 15.311 13.004 28.575 20.487 39.692-63.735-18.451-115.856-64.511-142.514-124.325zm266.92 124.325c7.483-11.117 14.362-24.381 20.487-39.692 9.862-24.652 17.407-53.41 22.374-84.633h99.653c-26.658 59.814-78.778 105.874-142.514 124.325z" fill="#fff" opacity="1" data-original="#fff"/></g></svg>