<svg xmlns="http://www.w3.org/2000/svg" version="1.1" xmlns:xlink="http://www.w3.org/1999/xlink" width="512" height="512" x="0" y="0" viewBox="0 0 488 488" style="enable-background:new 0 0 512 512" xml:space="preserve" class=""><g><path d="M71.7 192.7h222.6c5.5 0 10-4.5 10-10s-4.5-10-10-10H71.7c-5.5 0-10 4.5-10 10s4.5 10 10 10zM183 294.7H71.7c-5.5 0-10 4.5-10 10s4.5 10 10 10H183c5.5 0 10-4.5 10-10s-4.5-10-10-10zM183 355.7H71.7c-5.5 0-10 4.5-10 10s4.5 10 10 10H183c5.5 0 10-4.5 10-10s-4.5-10-10-10zM71.7 253.7h222.6c5.5 0 10-4.5 10-10s-4.5-10-10-10H71.7c-5.5 0-10 4.5-10 10s4.5 10 10 10z" fill="#fff" opacity="1" data-original="#fff" class=""></path><path d="m485.1 221.4-45.7-45.7c-1.9-1.9-4.4-2.9-7.1-2.9s-5.2 1.1-7.1 2.9l-28.7 28.7V120.4c0-.2 0-.4-.1-.5 0-.1-.1-.3-.1-.4 0-.1-.1-.3-.1-.4 0-.2-.1-.3-.1-.5 0-.1-.1-.3-.1-.4-.1-.2-.1-.3-.2-.4-.1-.1-.1-.3-.2-.4-.1-.1-.1-.3-.2-.4-.1-.1-.2-.3-.3-.4-.1-.1-.1-.2-.2-.3-.2-.2-.3-.5-.5-.7L303 3.6c-.2-.3-.5-.5-.7-.8l-.2-.2c-.2-.2-.4-.3-.6-.5-.1-.1-.2-.1-.3-.2-.2-.1-.4-.3-.6-.4-.1-.1-.2-.1-.3-.2l-.6-.3c-.1-.1-.2-.1-.3-.1-.2-.1-.5-.2-.7-.3-.1 0-.2-.1-.3-.1-.2-.1-.5-.1-.7-.2-.1 0-.2-.1-.3-.1-.3-.1-.5-.1-.8-.1h-.3c-.4 0-.7-.1-1.1-.1H10C4.5 0 0 4.5 0 10v468c0 5.5 4.5 10 10 10h376.5c5.5 0 10-4.5 10-10V323.9l88.5-88.1c1.9-2.1 3-4.7 3-7.3 0-2.7-1.1-5.2-2.9-7.1zm-180-183.7 60.4 74h-60.4v-74zm71.8 430H20v-448h265.1v102c0 5.5 4.5 10 10 10h81.4v92.6L274.2 326.6c-.2.2-.3.3-.4.5-.1.1-.2.2-.2.3-.4.6-.8 1.1-1.1 1.7v.1c-.1.3-.3.6-.4.9l-27.4 72.4c-1.4 3.7-.5 7.8 2.3 10.6 1.9 1.9 4.5 2.9 7.1 2.9 1.2 0 2.4-.2 3.5-.6l73.2-27.4h.1c.2-.1.4-.2.7-.3.1 0 .2-.1.3-.1.2-.1.4-.2.6-.4.1-.1.2-.1.3-.2.2-.1.4-.3.6-.4.1-.1.2-.1.3-.2.2-.1.3-.3.5-.4.1-.1.2-.2.3-.2l42.4-42.2v124.1zm-91.6-116.2 23.6 23.2-37.8 14.2 14.2-37.4zm41.7 13-31.5-31 136.7-136.7 31.6 31.6L327 364.5z" fill="#fff" opacity="1" data-original="#fff" class=""></path></g></svg>