<svg xmlns="http://www.w3.org/2000/svg" version="1.1" xmlns:xlink="http://www.w3.org/1999/xlink" width="512" height="512" x="0" y="0" viewBox="0 0 64 64" style="enable-background:new 0 0 512 512" xml:space="preserve"><g><path d="M54.9 60H9.1C6.3 60 4 57.8 4 55V43c0-1.7 1.3-3 3-3s3 1.3 3 3v11h44V43c0-1.7 1.3-3 3-3s3 1.3 3 3v12c0 2.8-2.3 5-5.1 5z" fill="#fff" opacity="1" data-original="#fff"></path><path d="M50.2 31c-1.1-1.2-3-1.3-4.2-.2L35 40.9V7c0-1.7-1.3-3-3-3s-3 1.3-3 3v33.9L18 30.8c-1.3-1.1-3.2-.9-4.2.3s-.9 3 .2 4.1l14.5 13.4c2 1.8 5 1.8 7 0L50 35.2c1.2-1.1 1.3-3 .2-4.2z" fill="#fff" opacity="1" data-original="#fff"></path></g></svg>