<svg xmlns="http://www.w3.org/2000/svg" version="1.1" xmlns:xlink="http://www.w3.org/1999/xlink" width="512" height="512" x="0" y="0" viewBox="0 0 512 512" style="enable-background:new 0 0 512 512" xml:space="preserve" class=""><g><circle cx="185.771" cy="185.779" r="28.128" transform="rotate(-45 185.75 185.827)" fill="#919191" opacity="1" data-original="#000000" class=""></circle><circle cx="326.223" cy="326.227" r="28.128" fill="#919191" opacity="1" data-original="#000000" class=""></circle><path d="M469.29 206.128c-9.083-9.399-13.254-22.228-11.429-35.167l7.78-55.213a13.997 13.997 0 0 0-11.484-15.793l-54.925-9.632c-12.898-2.264-23.819-10.208-29.953-21.775l-26.097-49.231c-3.581-6.751-11.773-9.399-18.592-6.051l-50.067 24.506c-11.773 5.763-25.274 5.763-37.046 0l-50.068-24.506a14.204 14.204 0 0 0-6.216-1.441 13.976 13.976 0 0 0-12.376 7.492l-26.083 49.217c-6.051 11.416-17.247 19.552-29.966 21.775l-54.911 9.632a14.012 14.012 0 0 0-11.498 15.806l7.78 55.213c1.825 12.939-2.346 25.754-11.416 35.167L3.974 246.234a14.013 14.013 0 0 0-.014 19.538l38.748 40.106c9.083 9.399 13.254 22.228 11.429 35.167l-7.78 55.213a13.99 13.99 0 0 0 11.484 15.793l54.925 9.632c12.898 2.264 23.819 10.208 29.953 21.775l26.097 49.231a14.013 14.013 0 0 0 18.592 6.051l50.067-24.506c11.773-5.763 25.274-5.763 37.046 0l50.067 24.506a14.016 14.016 0 0 0 18.592-6.051l26.083-49.217c6.051-11.402 17.247-19.552 29.966-21.775l54.911-9.632a14.012 14.012 0 0 0 11.498-15.806l-7.78-55.213c-1.825-12.939 2.333-25.754 11.416-35.167l38.748-40.106h.014a14.026 14.026 0 0 0 0-19.538zm-339.743-20.349c0-31.009 25.219-56.228 56.228-56.228s56.228 25.219 56.228 56.228-25.219 56.228-56.228 56.228-56.228-25.218-56.228-56.228zm52.085 164.459c-2.744 2.744-6.339 4.116-9.934 4.116s-7.19-1.372-9.934-4.116c-5.488-5.488-5.488-14.38 0-19.868l168.602-168.602c5.488-5.488 14.38-5.488 19.868 0s5.488 14.38 0 19.868zm144.591 32.217c-31.009 0-56.228-25.219-56.228-56.228s25.219-56.228 56.228-56.228 56.228 25.219 56.228 56.228-25.219 56.228-56.228 56.228z" fill="#919191" opacity="1" data-original="#000000" class=""></path></g></svg>