<svg xmlns="http://www.w3.org/2000/svg" version="1.1" xmlns:xlink="http://www.w3.org/1999/xlink" width="512" height="512" x="0" y="0" viewBox="0 0 36 36" style="enable-background:new 0 0 512 512" xml:space="preserve" class=""><g><path d="M32.44 20.63a5.3 5.3 0 0 0-3.77-1.56H24.4a5.33 5.33 0 0 0-5.33 5.33v4.27A5.33 5.33 0 0 0 24.4 34h4.27A5.33 5.33 0 0 0 34 28.67V24.4a5.3 5.3 0 0 0-1.56-3.77Zm-.57 8a3.2 3.2 0 0 1-3.2 3.2H24.4a3.2 3.2 0 0 1-3.2-3.2V24.4a3.2 3.2 0 0 1 3.2-3.2h4.27a3.2 3.2 0 0 1 3.2 3.2ZM15.37 20.63a5.3 5.3 0 0 0-3.77-1.56H7.33A5.33 5.33 0 0 0 2 24.4v4.27A5.33 5.33 0 0 0 7.33 34h4.27a5.33 5.33 0 0 0 5.33-5.33V24.4a5.3 5.3 0 0 0-1.56-3.77Zm-.57 8a3.2 3.2 0 0 1-3.2 3.2H7.33a3.2 3.2 0 0 1-3.2-3.2V24.4a3.2 3.2 0 0 1 3.2-3.2h4.27a3.2 3.2 0 0 1 3.2 3.2ZM32.44 3.56A5.3 5.3 0 0 0 28.67 2H24.4a5.33 5.33 0 0 0-5.33 5.33v4.27a5.33 5.33 0 0 0 5.33 5.33h4.27A5.33 5.33 0 0 0 34 11.6V7.33a5.3 5.3 0 0 0-1.56-3.77Zm-.57 8a3.2 3.2 0 0 1-3.2 3.2H24.4a3.2 3.2 0 0 1-3.2-3.2V7.33a3.2 3.2 0 0 1 3.2-3.2h4.27a3.2 3.2 0 0 1 3.2 3.2ZM15.37 3.56A5.3 5.3 0 0 0 11.6 2H7.33A5.33 5.33 0 0 0 2 7.33v4.27a5.33 5.33 0 0 0 5.33 5.33h4.27a5.33 5.33 0 0 0 5.33-5.33V7.33a5.3 5.3 0 0 0-1.56-3.77Zm-.57 8a3.2 3.2 0 0 1-3.2 3.2H7.33a3.2 3.2 0 0 1-3.2-3.2V7.33a3.2 3.2 0 0 1 3.2-3.2h4.27a3.2 3.2 0 0 1 3.2 3.2Z" fill="#000000" opacity="1" data-original="#000000" class=""/></g></svg>