<svg xmlns="http://www.w3.org/2000/svg" version="1.1" xmlns:xlink="http://www.w3.org/1999/xlink" width="512" height="512" x="0" y="0" viewBox="0 0 32 32" style="enable-background:new 0 0 512 512" xml:space="preserve"><g><path d="M23 3H9a5.006 5.006 0 0 0-5 5v10a5.006 5.006 0 0 0 5 5h2v5a1 1 0 0 0 1.65.759L19.37 23H23a5.006 5.006 0 0 0 5-5V8a5.006 5.006 0 0 0-5-5zM10 15a2 2 0 1 1 2-2 2 2 0 0 1-2 2zm6 0a2 2 0 1 1 2-2 2 2 0 0 1-2 2zm6 0a2 2 0 1 1 2-2 2 2 0 0 1-2 2z" fill="#fff" opacity="1" data-original="#fff"></path></g></svg>