<svg xmlns="http://www.w3.org/2000/svg" width="32" height="32" viewBox="0 0 32 32" fill="none">
<path fill-rule="evenodd" clip-rule="evenodd" d="M29.6361 7.65461C28.2649 5.41367 26.3581 3.53676 24.0944 2.20255C21.7196 0.802995 18.9489 0 15.988 0C13.0271 0 10.2562 0.802906 7.88163 2.20255C5.61786 3.53668 3.71117 5.41368 2.33984 7.65453C4.83039 8.51625 6.80723 10.4628 7.71855 12.9178C8.1654 11.7143 8.86707 10.635 9.75818 9.74553C11.3542 8.1523 13.5566 7.16723 15.988 7.16723C18.4202 7.16723 20.6232 8.15301 22.2192 9.74691C23.1096 10.6361 23.8107 11.7147 24.2572 12.917C25.1705 10.4545 27.1494 8.5167 29.6361 7.65461Z" fill="white"/>
<path fill-rule="evenodd" clip-rule="evenodd" d="M23.7068 20.2604C23.3056 20.9845 22.8056 21.6458 22.2252 22.2263C20.629 23.8223 18.4237 24.8094 15.9883 24.8094C13.5525 24.8094 11.3472 23.822 9.75101 22.2257C8.15466 20.6295 7.16726 18.4241 7.16726 15.9883C7.16726 12.6203 4.99348 9.65674 1.7895 8.62854C1.24088 9.68435 0.806828 10.8078 0.503799 11.9824C0.174949 13.2568 0 14.5991 0 15.9883C0 20.4034 1.78959 24.4005 4.68287 27.2938C7.57616 30.187 11.5732 31.9766 15.9883 31.9766C18.0817 31.9766 20.0667 31.1413 21.5283 29.6414C22.8836 28.2507 23.7172 26.3522 23.709 24.2603L23.7068 20.2604Z" fill="white"/>
<path fill-rule="evenodd" clip-rule="evenodd" d="M31.977 15.9882C31.977 14.599 31.8019 13.2567 31.4732 11.9823C31.1703 10.8078 30.7363 9.68435 30.1875 8.62854C26.9966 9.64256 24.8156 12.6179 24.8077 15.9682V24.258C24.8169 26.7972 23.7266 29.2071 21.8184 30.8812C23.9216 30.0573 25.8081 28.8007 27.3679 27.2208C30.2178 24.3341 31.977 20.3673 31.977 15.9882Z" fill="white"/>
<script xmlns=""/></svg>