
<svg xmlns="http://www.w3.org/2000/svg" viewBox="0 0 480 480"><g><path d="M208 0H16C7.168 0 0 7.168 0 16v192c0 8.832 7.168 16 16 16h192c8.832 0 16-7.168 16-16V16c0-8.832-7.168-16-16-16zm-16 192H32V32h160v160zM464 0H272c-8.832 0-16 7.168-16 16v192c0 8.832 7.168 16 16 16h192c8.832 0 16-7.168 16-16V16c0-8.832-7.168-16-16-16zm-16 192H288V32h160v160zM208 256H16c-8.832 0-16 7.168-16 16v192c0 8.832 7.168 16 16 16h192c8.832 0 16-7.168 16-16V272c0-8.832-7.168-16-16-16zm-16 192H32V288h160v160zM464 256H272c-8.832 0-16 7.168-16 16v192c0 8.832 7.168 16 16 16h192c8.832 0 16-7.168 16-16V272c0-8.832-7.168-16-16-16zm-16 192H288V288h160v160z" fill="#fff" opacity="1" data-original="#fff"></path></g></svg>