<svg width="24" height="24" viewBox="0 0 24 24" fill="none" xmlns="http://www.w3.org/2000/svg"><path fill-rule="evenodd" clip-rule="evenodd" d="M9.5 3.50034C7.91461 3.50034 6.57542 4.56336 6.14504 6.02118H3C2.44772 6.02118 2 6.47269 2 7.02965C2 7.58662 2.44772 8.03813 3 8.03813H6.14484C6.575 9.4963 7.91436 10.5597 9.5 10.5597C11.0856 10.5597 12.425 9.4963 12.8552 8.03813H21C21.5523 8.03813 22 7.58662 22 7.02965C22 6.47269 21.5523 6.02118 21 6.02118H12.855C12.4246 4.56336 11.0854 3.50034 9.5 3.50034ZM8 7.03C8 6.19455 8.67157 5.51729 9.5 5.51729C10.3284 5.51729 11 6.19455 11 7.03C11 7.86545 10.3284 8.54271 9.5 8.54271C8.67157 8.54271 8 7.86545 8 7.03Z" fill="#28262B"></path><path fill-rule="evenodd" clip-rule="evenodd" d="M11.1907 18.1229H3C2.44772 18.1229 2 17.6714 2 17.1144C2 16.5574 2.44772 16.1059 3 16.1059H11.1058C11.4882 14.5746 12.8628 13.441 14.5 13.441C16.1372 13.441 17.5118 14.5746 17.8942 16.1059H21C21.5523 16.1059 22 16.5574 22 17.1144C22 17.6714 21.5523 18.1229 21 18.1229H17.8093C17.3357 19.5065 16.0329 20.5003 14.5 20.5003C12.9671 20.5003 11.6643 19.5065 11.1907 18.1229ZM13 16.9707C13 16.1352 13.6716 15.458 14.5 15.458C15.3284 15.458 16 16.1352 16 16.9707C16 17.8061 15.3284 18.4834 14.5 18.4834C13.6716 18.4834 13 17.8061 13 16.9707Z" fill="#28262B"></path></svg>