<svg width="24" height="24" viewBox="0 0 24 24" fill="none" xmlns="http://www.w3.org/2000/svg"><path d="M20.5737 18.3962L16.4354 14.2576C17.1386 13.1382 17.5466 11.8151 17.5466 10.3952C17.5466 6.37815 14.2901 3.12207 10.2732 3.12207C6.25623 3.12207 3 6.37814 3 10.3952C3 14.4125 6.25608 17.6683 10.2732 17.6683C11.8184 17.6683 13.2497 17.1852 14.4274 16.3643L18.5165 20.4537C18.8006 20.7375 19.1731 20.8789 19.5451 20.8789C19.9176 20.8789 20.2896 20.7375 20.5742 20.4537C21.142 19.8852 21.142 18.9645 20.5737 18.3962ZM10.2732 15.3119C7.55808 15.3119 5.35685 13.1108 5.35685 10.3955C5.35685 7.6803 7.55808 5.47908 10.2732 5.47908C12.9884 5.47908 15.1895 7.6803 15.1895 10.3955C15.1895 13.1108 12.9884 15.3119 10.2732 15.3119Z" fill="#95919F"></path></svg>