<svg xmlns="http://www.w3.org/2000/svg" width="48" height="48" fill="currentColor" viewBox="0 0 12 11" class="text-[#FF9500] h-[14px] w-[14px]"><path d="M6.323.888a.75.75 0 0 0-.646 0 .8.8 0 0 0-.323.31c-.05.083-.102.189-.153.292L4.123 3.673l-2.411.353c-.114.016-.23.033-.325.056a.8.8 0 0 0-.394.211.75.75 0 0 0-.2.614.8.8 0 0 0 .196.403c.063.074.148.156.23.236l1.744 1.699-.412 2.399c-.02.113-.04.229-.047.326a.8.8 0 0 0 .079.44.75.75 0 0 0 .522.38.8.8 0 0 0 .444-.061c.09-.037.194-.092.296-.146L6 9.45l2.155 1.133c.102.054.206.109.296.146a.8.8 0 0 0 .444.061.75.75 0 0 0 .522-.38.8.8 0 0 0 .079-.44c-.008-.097-.028-.213-.047-.326l-.412-2.4 1.744-1.698a4 4 0 0 0 .23-.236.8.8 0 0 0 .196-.403.75.75 0 0 0-.2-.614.8.8 0 0 0-.394-.211 4 4 0 0 0-.325-.056l-2.41-.353L6.798 1.49c-.05-.103-.103-.209-.153-.292a.8.8 0 0 0-.323-.31"></path></svg>