<svg xmlns="http://www.w3.org/2000/svg" viewBox="18.746200561523438 13.894041061401367 118.50730895996094 128.21221923828125"><g><path d="M36.91 23.494c-3.758-.801-7.59 1.253-9.18 6.83a53.394 53.394 0 0 0-1.246 5.16c-7.168 4.278-4.754 14.465 2.512 15.924 1.56 3.305 4.063 4.988 6.354 5.326.749.108 1.549.084 2.293.258 2.566 2.653 5.847 4.516 9.388 5.199a.264.264 0 0 0 .048.004c.01 0 .016-.008.025-.009-.035.738-.062 1.376-.079 1.947-.931.35-.431.17-1.2.474-.908.36-2.038.807-2.319 1.944-.267 1.073.258 1.972 1.403 2.407.207.077.431.148.475.262.029.08-.037.217-.146.3-.15.114-.356.174-.565.276-1.7.828-1.632 3.29.103 4.025.145.061.287.103.43.16-8.147 1.99-14.16 4.725-18.926 12.138-6.043 9.4-9.31 23.332-6.533 35.032 1.145 4.83 4.333 6.737 9.108 8.25 7.65 2.419 14.421-.418 15.47-2.22.412-.701.481-.82.659-1.116 2.337-.345 4.053-2.186 4.393-4.146a37.56 37.56 0 0 1 1.922-.927c.201 1.432.395 2.814.573 4.147.427 3.04.594 7.1 3.235 8.96.417.29.89.421 1.348.547-.101-.029 24.978 7.434 25.083 7.46.362.051 25.496-8.665 27.508-9.24 5.317-1.513 6.19-2.746 6.333-8.108 0-.035.924-17.515 1.158-22.226h7.68c1.36 0 2.216-1.465 1.549-2.65l-8.63-15.33c-.014-.234-.077-.47-.287-.509l-.046-.081-.001.062c-.37.047-.299.035-.902.135l-18.95-2.425c-4.77-.61-9.62-1.63-14.42-1.41-.25.51-.4 1.08-.45 1.65h.3c1.89-.04 4.6.12 6.37 1.81 1.499 1.436.558 2.982-1.19 3.38-2.819.617-5.912-1.418-5.99-4.67-.93.06-1.86.2-2.7.59-2.204 1.035-2.746 3.372-.8 5.2 2.521 2.372 6.299 1.82 9.42 1.29.13-.02.26.07.29.21v.04c.991-.182 21.991-4.272 28.851-5.279.326 3.82-1.706 38.45-1.752 40.2-.137 5.157-.882 6.192-5.97 7.64-1.563.444 1.211-.47-27.2 9.248-.102-.03-25.812-7.594-26.315-7.944-2.464-1.735-2.63-5.81-3.026-8.618-.252-1.882-.554-3.995-.674-4.853 2.493-.46 4.897-1.212 6.46-3.115.987-1.204 1.36-2.783.207-3.796.087.02.175.045.263.064 3.035.658 4.837-3.145 5.988-4.81 7-9.982 10.555-15.617 11.56-16.26a.25.25 0 0 0 .202-.2c.007-.032-.012-.06-.018-.09l7.804-1.497c-8.833.608-10.788-8.106-2.58-8.52.04-.57.18-1.12.4-1.64-.723.041-1.439.126-2.154.236l.001-.004c-.561-3.691-1.89-6.962-3.947-9.722-3.614-4.82-9.944-2.217-15.25-.672-.237-1.026-.853-1.963-1.738-2.547.76-.821.601-2.262-.154-3.098-.38-.417-.85-.7-1.346-.904.003-.489.016-.94.037-1.327 6.646-1.346 10.782-7.11 11.972-12.503 1.494-6.772-1.186-12.551-1.467-15.054.726-1.849 1.743-3.606 1.906-5.585.16-1.93.48-3.83.21-5.77-.397-2.913-1.75-5.77-3.93-7.92-.24-.24-2-1.39-2.01-1.59.08 1.77-1.57 3.18-3.25 3.76-1.75.61-3.63.64-5.47.52-1.73-.12-3.24.06-4.98.13-3.862.158-6.813.106-8.17 4.43-.19.62-.26 1.19-.32 1.82-.024.27-.272 1.062-.259 1.475l-.18-.033c-1.134-1.218-2.988-2.156-4.57-2.502zm-14.037 17.5c1.062-4.335 5.952-7.272 9.925-5.9-.309 1.322-.49 2.287-.47 2.187-.206 1.062-.672 2.638-.476 3.839-.113 3.407.63 6.783 1.702 9.499-2.27.779-4.776.592-6.76-.533-3.088-1.747-4.773-5.656-3.921-9.093zm28.354 79.48c-.642.288-1.23.57-1.786.854.026-.876.03-.726 1.761-1.02l.025.167zm6.54-3.689c-1.78 2.17-4.845 2.77-7.649 3.19-.22.03-.64.099-.907.385h-5.337c-.331 0-.33.5 0 .5h5.096c-.02.138-.02.282-.02.431-.018 1.927-1.649 3.784-3.713 4.228-1.871.407-4.053-.26-5.69-1.731-4.17-3.75-4.597-11.48-3.67-17 15.153 4.377 13.131 3.704 17.07 4.963 1.27.407 2.57.818 3.87 1.17-.877.262-8.84 2.571-13.516 1.692-.32-.065-.421.43-.093.491 3.842.722 10.134-.594 13.83-1.727.28-.067.58 0 .851.183 1.076.727.767 2.143-.122 3.225zm6.434-8.509c-1.086 1.57-2.78 5.182-5.472 4.606-1.87-.405-3.781-1.016-5.629-1.607-3.915-1.252-1.734-.533-19.829-5.755-1.537-.441-3.624-.66-4.89-1.567-2.246-1.612 1.391-4.04 3.43-5.628L46.878 86.58l28.676 5.618c-1.112 1.078-1.488 1.847-11.354 16.078zm-5.875-40.799a.25.25 0 0 0 .024.427c1.647.876 1.88 2.778 1.84 2.678.001.006.008.008.01.014.316 2.07-1.342 3.823-3.123 4.027-.323.036-.279.527.057.497 2.027-.232 3.827-2.127 3.584-4.432 5.27-1.53 11.319-4.115 14.762.475 3.294 4.418 3.685 8.876 3.854 9.5-.154.027-20.409 3.545-22.404 3.89-3.14.55-6.28 1.092-9.42 1.64l-.647-.126a.242.242 0 0 0-.201.048L31.502 97.93c-2.448 1.914-6.102 4.5-3.413 6.429.292.209.627.377.98.527-2.11 2.164-3.643 4.88-4.322 7.7-.077.321.408.438.486.117.674-2.8 2.215-5.5 4.341-7.625 1.33.465 2.453.606 3.56.923l2.258.647c-.708 4.165-.523 8.616.51 11.95 1.731 5.52 5.283 7.653 8.467 7.525-.594 1.007-.639 1.278-1.817 1.91-4.075 2.189-9.121 2.29-13.546.892-4.608-1.46-7.682-3.29-8.773-7.889-2.729-11.504.455-25.294 6.468-34.647 4.713-7.33 10.428-9.93 18.704-11.942l.639-.152c3.187 1.147 6.05 1.433 8.92 1.071.33-.04.264-.539-.062-.496-3.313.417-6.562-.076-9.93-1.51a1.765 1.765 0 0 1-1.043-1.53c-.015-.65.38-1.301.963-1.584.198-.098.432-.164.648-.328.238-.183.437-.533.312-.873-.139-.366-.557-.477-.765-.554-.425-.161-1.384-.662-1.095-1.82.259-1.052 1.497-1.365 2.488-1.79a16.98 16.98 0 0 1 9.004-1.203c.953.133 2.142.39 2.883 1.205.645.714.759 2.049-.041 2.594zm1.784-38.643c3.03.852 5.688 3.067 7.33 5.998.293 2.564 2.936 8.24 1.473 14.874-1.16 5.253-5.195 10.867-11.674 12.134-.012-.003-.019-.015-.032-.016-.048-.006-.09.02-.13.042-.313.058-.626.116-.951.153-.312.036-.285.499.027.499.01 0 .02 0 .029-.002.253-.029.496-.078.743-.12-.016.324-.026.68-.03 1.07-2.06-.623-5.843-.716-9.363.481.022-.663.056-1.408.098-2.302.015-.297-.48-.423-.503.055h-.001c-8.539-1.647-14.67-9.794-14.787-19.65.177.086.365.044.478-.205 2.927-6.423 8.598-12.317 15.075-14.645a43.489 43.489 0 0 1 12.218 1.634z" fill="#00b08c" opacity="1" data-original="#00b08c"></path><path d="M55.374 51.145c.878-.296 1.607-.289 2.465-.905 1.18-.843 1.098-2.056 1.012-3.34-.132-1.96-.152-4.684-.307-8.31-.015-.324-.514-.313-.5.021.143 3.309.175 6.324.307 8.322.084 1.24.15 2.219-.804 2.9-.76.546-1.433.536-2.333.839-.307.103-.16.579.16.473zM48.441 37.228c.984.291 3.53.12 3.835-.75.093-.267-.03-.568-.224-.773-.598-.631-1.511-.337-2.31-.201-.522.089-1.052.226-1.526.48-.762.405-.45 1.044.225 1.244zM65.27 38.408c.211-.186.251-.51.183-.783-.18-.721-.905-.973-1.558-1.189-.607-.2-1.176-.434-1.92-.452-.863-.02-.906.69-.415 1.195.712.735 3.015 1.84 3.71 1.229zM31.185 42.19c-1.555-2.398-4.987-2.673-6.902-.547-.221.247.151.58.372.335a3.939 3.939 0 0 1 3.174-1.266c.064.005.125.03.189.038.232.927.47 1.957.232 2.917-.038.155-.192.668-.557.756-.457.107-.815-.389-1.065-.748-.19-.272-.6.015-.41.286.355.509.74.975 1.363.975.622 0 1.005-.545 1.155-1.149.247-.995.048-2.004-.178-2.928.893.257 1.702.825 2.207 1.603.178.277.6.007.42-.272zM49.931 42.525c.172 1.41 1.092 2.456 2.054 2.339.962-.118 1.603-1.355 1.43-2.764-.171-1.41-1.09-2.456-2.053-2.339-.962.118-1.603 1.355-1.43 2.764zM63.057 40.057c-.963.117-1.603 1.355-1.431 2.764.172 1.409 1.092 2.456 2.054 2.338.962-.117 1.603-1.355 1.43-2.764-.172-1.409-1.091-2.456-2.053-2.338zM87.45 86.674c1.318-.293 2.198-1.315.95-2.53-1.63-1.56-4.22-1.71-6.01-1.67h-.32c.08 3.04 2.97 4.735 5.38 4.2zM77.122 92.657a389.771 389.771 0 0 0 4.224 46.438c.049.328.544.254.494-.075a389.188 389.188 0 0 1-4.218-46.378c-.011-.345-.509-.305-.5.015zM91.738 72.933c-1.983.18-3.924.773-5.629 1.722-2.077 1.145-3.495 3.584-4.13 5.485-.104.314.37.472.475.158.772-2.31 2.265-4.305 3.897-5.206a13.79 13.79 0 0 1 5.383-1.657c.133 3.49 3.014 5.895 6.502 6.673 3.64.802 5.265-1.65 3.806-3.814-1.735-2.576-6.514-3.626-9.8-3.401.301-4.423 6.502-5.808 10.667-5.7-.265 1.255-.332 3.114.438 4.156.938 1.32 2.85 1.418 4.33 1.068.554-.13 1.179-.33 1.616-.813.855-.913.55-2.43-.275-3.276-1.23-1.244-3.733-1.546-5.484-1.615.453-1.793 1.475-3.54 2.956-5.088 3.115 1.417 5.897 2.881 8.414 5.01 1.85 1.563 5.194 4.481 7.107 3.037 2.12-1.598 2.148-4.994 2.491-7.383 1.246-8.705.995-18.033-1.435-26.427-.513-1.771-1.13-3.6-2.526-4.806-4.412-3.81-10.093 4.538-12.66 7.051C97.71 48 99.257 46.688 97.435 48.19c-2.04 1.68-4.831 3.978-4.01 6.096.987 2.551 5.163 3.795 12.581 7.118-1.505 1.61-2.534 3.428-2.984 5.293-4.7-.136-11.023 1.462-11.284 6.236zm9.89 3.64c.346.513.673 1.29.269 2.077-1.32 2.603-9.46.382-9.664-5.255 2.6-.181 7.742.725 9.395 3.178zm-4.842-19.877c-4.893-2.549-3.225-4.669.967-8.12 1.846-1.52.425-.336 10.478-10.111 2.59-2.539 8.021-10.45 11.983-7.03 1.292 1.115 1.88 2.867 2.372 4.565 1.524 5.264 2.244 11.075 2.14 17.273-.084 4.99-.66 8.32-.865 10.142-.245 2.17-.522 4.63-2.15 5.858-1.536 1.16-4.634-1.456-6.485-3.02-5.31-4.488-12.246-6.328-18.44-9.557zm6.63 10.513c1.603.055 4.12.33 5.245 1.47.649.665.917 1.89.264 2.587-.348.384-.884.551-1.363.665-1.32.309-3.014.245-3.81-.876-.687-.93-.586-2.721-.336-3.846zM103.06 30.823a.25.25 0 0 0-.004-.354 53.316 53.316 0 0 0-3.485-3.112c-.258-.208-.572.179-.317.388 3.406 2.78 3.47 3.417 3.806 3.078zM106.487 29.005a61.063 61.063 0 0 1-1.356-4.208c-.09-.319-.572-.182-.482.136a61.47 61.47 0 0 0 1.368 4.243c.112.31.584.142.47-.171zM97.824 32.036c2.321.423 3.433 1.174 3.647 1.174.265 0 .346-.36.108-.475a14.455 14.455 0 0 0-3.665-1.191c-.33-.056-.412.433-.09.492zM59.21 125.78c-.397-.104-.836-.208-1.148-.073-.39.168-.414.628-.37 1.037.073.675.155 1.899.757 2.545.756.813 2.584 1.01 3.582 1.277.63.169 2.415.829 2.942.608.526-.22.414-1.7.487-2.244.037-.27.072-.555-.06-.842-.583-1.273-4.935-1.978-6.19-2.308z" fill="#00b08c" opacity="1" data-original="#00b08c"></path><path d="M118.683 44.866a2.073 2.073 0 0 0-.734-3.172c-.289-.138-.58-.274-.868-.412-1.042-.496-2.32-.067-2.773.992-1.124 2.62-1.951 5.446-3.085 8.114-.308.72-1.006 1.64-.29 2.345.17.17.736.49 1.048.367.253-.107.007.083 2.74-3.307 1.32-1.642 2.643-3.284 3.962-4.927zM107.927 54.936c-.966.5-1.384 1.62-.927 2.499.454.88 1.61 1.19 2.576.69s1.381-1.618.927-2.5c-.456-.883-1.61-1.19-2.576-.69zM88.401 106.994c-.32.072-.522.33-.67.622-6.36 12.758-6.264 12.457-6.403 12.897-.178.559-.04 1.081.534.953l5.817-1.301-.028 3.164c-.007.885.78.667 1.025.312.264-.38.116-.691.185-3.74l1.602-.359a.697.697 0 0 0 .43-.261c.219-.298.285-1.172-.419-1.014l-1.602.358.096-11.026c.004-.517-.247-.676-.567-.605zm-5.81 13.036 5.178-10.347-.08 9.207zM97.37 121.932c3.802-.85 4.656-5.642 4.69-9.556.034-3.95-.706-8.326-4.542-7.468-3.816.854-4.655 5.656-4.69 9.556-.033 3.9.753 8.316 4.542 7.468zm.136-15.725c3.074-.688 3.38 3.285 3.352 6.438-.027 3.115-.442 7.31-3.476 7.989-3.035.679-3.378-3.349-3.351-6.462.027-3.123.428-7.283 3.475-7.965zM111.286 101.876c-.699.156-.462.35-6.85 12.985-.104.212-.178.39-.224.533-.174.548-.044 1.083.534.953l5.817-1.301c.017 3.075-.135 3.411.12 3.673.26.266 1.028.08 1.035-.774l.028-3.164 1.602-.358c.674-.15.675-.982.438-1.206-.233-.219-.574.005-2.03.29l.096-11.027c.004-.517-.247-.676-.566-.604zm-5.81 13.035 5.178-10.347-.08 9.207zM55.076 68.23l-8.29 1.077c-.33.043-.261.54.064.496l8.29-1.077c.334-.044.256-.545-.064-.496zM50.178 53.903c-.317.1-.162.578.15.476 2.62-.823 3.52-.425 4.66 2.145.134.303.591.1.457-.202-1.278-2.885-2.482-3.296-5.267-2.42zM42.044 38.172a4.385 4.385 0 0 1-.493 2.88c-.153.274-.472.733-.9.745h-.017c-.843 0-2.309-2.174-1.635-4.425.095-.317-.383-.459-.479-.144-.936 3.13 1.897 6.88 3.467 4.069a4.89 4.89 0 0 0 .55-3.21c-.058-.328-.549-.24-.493.085zM45.377 43.467c.059.572-.191 1.132-.622 1.393-.443.269-1.082.152-1.339-.245-.262-.408-.14-.991.012-1.51.094-.317-.386-.456-.48-.14-.184.626-.323 1.344.049 1.92.401.624 1.345.81 2.017.403.593-.36.939-1.112.86-1.872-.033-.328-.53-.278-.497.051zM119.676 128.248c-.321.072-.214.564.11.487 6.368-1.436 11.962-5.48 14.962-10.82 3.183-5.663 3.346-12.83.416-18.257-.479-.888-.976-1.585-1.513-2.116 4.072-6.267 3.635-16.055-5.802-25.213-.237-.23-.585.127-.349.358 9.182 8.911 9.683 18.425 5.776 24.516-2.956-2.423-6.595.217-4.82 2.752.442.631 1.102.94 1.76.814 1.105-.204 2.503-1.89 3.15-2.805.476.488.922 1.124 1.358 1.931 2.85 5.28 2.689 12.258-.411 17.775-2.933 5.218-8.404 9.172-14.637 10.578zm10.45-27.97c-.663.126-1.104-.385-1.26-.61-1.469-2.094 1.677-4.102 4.13-2.047-.549.787-1.925 2.482-2.87 2.656z" fill="#00b08c" opacity="1" data-original="#00b08c"></path></g></svg>

