<svg xmlns="http://www.w3.org/2000/svg" version="1.1" xmlns:xlink="http://www.w3.org/1999/xlink" width="512" height="512" x="0" y="0" viewBox="0 0 260 260" style="enable-background:new 0 0 512 512" xml:space="preserve" class=""><g><path fill="#dde9fe" d="M162.149 155.78c.02 6.92-4.84 15.34-10.86 18.82l-133.47 77.06c-3.09 1.78-5.88 1.91-7.87.68.04.03.08.06.12.08l-4.61-2.69c-1.96-1.14-3.16-3.55-3.17-6.99L1.999 101c-.02-6.92 4.85-15.34 10.86-18.81l133.48-77.06c3.02-1.74 5.77-1.91 7.74-.76l4.62 2.68c-.14-.08-.28-.15-.42-.21 2.2 1.02 3.58 3.53 3.59 7.2z" opacity="1" data-original="#dde9fe" class=""></path><path fill="#c7d8ef" d="M158.694 7.05c-1.985-1.15-4.731-.989-7.753.76L17.474 84.87c-6.024 3.469-10.88 11.896-10.86 18.804l.275 141.75c.01 3.43 1.226 5.853 3.183 6.993L5.46 249.73c-1.957-1.14-3.164-3.553-3.174-6.993l-.285-141.74c-.019-6.917 4.846-15.335 10.86-18.813L146.34 5.133c3.02-1.748 5.767-1.91 7.743-.76z" opacity="1" data-original="#c7d8ef" class=""></path><path fill="#dde9fe" d="M150.939 7.81c6.018-3.474 10.91-.686 10.93 6.229l.278 141.742c.02 6.915-4.841 15.342-10.86 18.816L17.82 251.655c-6.018 3.475-10.91.68-10.93-6.235L6.61 103.678c-.02-6.915 4.842-15.335 10.86-18.81z" opacity="1" data-original="#dde9fe" class=""></path><path fill="#ffffff" d="M14.366 103.657c-.011-4.127 3.382-9.993 6.983-12.071l132.766-76.653.275 140.869c.013 4.13-3.38 10-6.98 12.079L19.947 241.47c-2.36 1.363-5.312-.337-5.318-3.063z" opacity="1" data-original="#ffffff"></path><path fill="#285294" d="M172.579 33.99c.01 2.53-1.77 5.61-3.98 6.88l-136.95 79.07c-1.11.65-2.12.71-2.85.28-.02-.01-.04-.03-.06-.04l-3.1-1.79c-.72-.42-1.17-1.3-1.17-2.57l-.03-11.84c-.01-2.54 1.77-5.61 3.98-6.89l136.95-79.07c1.11-.64 2.12-.7 2.84-.28l3.02 1.76c.03.02.06.03.09.05.75.4 1.22 1.3 1.22 2.59z" opacity="1" data-original="#285294"></path><path fill="#263966" d="M171.377 19.583c-.721-.419-1.722-.36-2.838.28L31.583 98.934c-2.21 1.267-3.978 4.35-3.978 6.886l.035 11.841c.011 1.256.453 2.152 1.163 2.56l-3.167-1.833c-.72-.419-1.163-1.303-1.163-2.57l-.035-11.842c-.012-2.536 1.768-5.606 3.978-6.886L165.372 18.02c1.105-.64 2.117-.698 2.838-.28z" opacity="1" data-original="#263966"></path><path fill="#285294" d="M168.542 19.861c2.206-1.273 3.994-.254 4.001 2.28l.034 11.845c.007 2.535-1.77 5.612-3.975 6.885L31.644 119.944c-2.206 1.273-3.994.254-4.001-2.28l-.034-11.845c-.007-2.534 1.77-5.612 3.975-6.885z" opacity="1" data-original="#285294"></path><g fill="#fff"><path d="M37.266 103.458c1.434-.828 2.6-.163 2.605 1.479.005 1.647-1.155 3.656-2.588 4.483-1.434.828-2.596.16-2.6-1.487-.005-1.642 1.15-3.647 2.583-4.475zM46.562 98.09c1.434-.827 2.596-.16 2.6 1.483.006 1.647-1.15 3.652-2.583 4.48-1.433.828-2.595.16-2.6-1.487-.005-1.642 1.15-3.648 2.583-4.475zM55.859 92.723c1.433-.827 2.596-.16 2.6 1.482.005 1.648-1.15 3.653-2.583 4.48-1.434.828-2.596.16-2.6-1.487-.005-1.641 1.15-3.647 2.583-4.475z" fill="#ffffff" opacity="1" data-original="#ffffff"></path></g><path fill="#dde9fe" d="M23.484 227.41a1.2 1.2 0 0 1-.6-2.239l35.605-20.557a1.2 1.2 0 0 1 1.2 2.078L24.082 227.25c-.19.11-.396.161-.599.161zM68.692 201.31a1.2 1.2 0 0 1-.6-2.24l76.582-44.214a1.2 1.2 0 0 1 1.2 2.078L69.29 201.148c-.19.11-.396.161-.6.161zM23.484 212.81a1.2 1.2 0 0 1-.6-2.239l83.238-48.058a1.2 1.2 0 1 1 1.2 2.078l-83.239 48.057c-.19.11-.396.161-.599.161zM116.795 158.937a1.2 1.2 0 0 1-.6-2.239l28.479-16.443a1.2 1.2 0 0 1 1.2 2.078l-28.48 16.443c-.19.11-.396.161-.6.161zM23.484 198.209a1.2 1.2 0 0 1-.6-2.239l36.765-21.227a1.2 1.2 0 1 1 1.2 2.078l-36.766 21.227c-.19.11-.396.16-.599.16zM71.3 170.602a1.2 1.2 0 0 1-.6-2.239l73.974-42.709a1.2 1.2 0 0 1 1.2 2.078l-73.975 42.71c-.189.108-.395.16-.599.16zM23.484 183.608a1.2 1.2 0 0 1-.6-2.239l76.61-44.23a1.2 1.2 0 1 1 1.2 2.078l-76.611 44.23c-.19.11-.396.16-.599.16zM109.67 133.85a1.2 1.2 0 0 1-.6-2.239l35.604-20.557a1.2 1.2 0 0 1 1.2 2.078l-35.606 20.557c-.189.109-.395.16-.599.16zM23.484 169.007a1.2 1.2 0 0 1-.6-2.24l19.234-11.105a1.2 1.2 0 0 1 1.2 2.078l-19.235 11.106c-.19.11-.396.16-.599.16zM52.482 152.265a1.2 1.2 0 0 1-.6-2.239l92.792-53.573a1.2 1.2 0 1 1 1.2 2.078L53.08 152.104c-.189.11-.395.16-.599.16zM23.484 154.406a1.2 1.2 0 0 1-.6-2.239l71.21-41.113a1.2 1.2 0 0 1 1.2 2.078l-71.211 41.114c-.19.109-.396.16-.599.16zM106.48 106.49a1.2 1.2 0 0 1-.6-2.24l38.794-22.398a1.2 1.2 0 1 1 1.2 2.078l-38.796 22.399c-.19.109-.395.16-.599.16zM23.484 139.806a1.2 1.2 0 0 1-.6-2.24L50.47 121.64a1.2 1.2 0 0 1 1.2 2.078l-27.587 15.927c-.19.109-.396.16-.599.16zM130.314 78.128a1.2 1.2 0 0 1-.6-2.239l14.96-8.638a1.2 1.2 0 1 1 1.2 2.079l-14.96 8.637c-.19.11-.396.16-.6.16z" opacity="1" data-original="#dde9fe" class=""></path><path fill="#5789dc" d="M103.109 227.88v7.72c-.01 1.65-1.09 3.3-3.26 4.56-4.37 2.54-11.48 2.54-15.88 0-2.21-1.28-3.31-2.95-3.31-4.63v-7.7c0-1.66 1.08-3.32 3.26-4.58 4.37-2.53 11.48-2.53 15.87 0 2.21 1.28 3.32 2.96 3.32 4.63z" opacity="1" data-original="#5789dc"></path><path fill="#4075c1" d="M103.106 227.883v7.712c-.005 1.653-1.09 3.304-3.26 4.565-4.369 2.538-11.476 2.538-15.873 0-2.21-1.276-3.315-2.954-3.31-4.63v-7.712c-.005 1.676 1.1 3.354 3.31 4.63 4.397 2.538 11.504 2.538 15.872 0 2.17-1.261 3.256-2.912 3.261-4.565z" opacity="1" data-original="#4075c1"></path><ellipse cx="91.883" cy="227.851" fill="#5789dc" rx="6.501" ry="11.223" transform="rotate(-89.83 91.91 227.861)" opacity="1" data-original="#5789dc"></ellipse><path fill="#b0c4ff" d="m97.113 136.072-.096 91.206c-.002.763-.504 1.525-1.505 2.107-2.017 1.172-5.298 1.172-7.328 0-1.02-.589-1.53-1.363-1.528-2.137l.096-91.206c-.002.774.508 1.548 1.528 2.137 2.03 1.172 5.31 1.172 7.327 0 1.002-.582 1.504-1.344 1.506-2.107z" opacity="1" data-original="#b0c4ff" class=""></path><ellipse cx="91.932" cy="136.057" fill="#c7d8ef" rx="3.001" ry="5.181" transform="rotate(-89.83 91.951 136.06)" opacity="1" data-original="#c7d8ef" class=""></ellipse><path fill="#5789dc" d="m131.539 130-14.47 37.37c-1.68 4.34-4.8 8.21-8.17 10.16l-29.12 16.81c-2.62 1.51-5.09 1.69-6.85.57.04.04.08.06.13.09l-4.68-2.72a4.77 4.77 0 0 1-1.48-1.36l-14.64-20.57c-1.69-2.39-1.71-6.52-.03-10.86l14.48-37.38c1.68-4.33 4.79-8.2 8.17-10.15l29.11-16.81c2.56-1.48 4.97-1.68 6.73-.66l4.68 2.72c-.08-.05-.16-.09-.25-.13.66.34 1.24.84 1.72 1.5l14.64 20.56c1.7 2.39 1.71 6.52.03 10.86z" opacity="1" data-original="#5789dc"></path><path fill="#4075c1" d="M110.715 94.492c-1.759-1.022-4.17-.82-6.725.656l-29.116 16.81c-3.377 1.95-6.49 5.823-8.166 10.153L52.23 159.49c-1.677 4.335-1.665 8.47.03 10.858l14.643 20.567c.413.58.91 1.035 1.475 1.363l4.68 2.72a4.718 4.718 0 0 1-1.475-1.363L56.94 173.068c-1.696-2.387-1.708-6.523-.031-10.858l14.478-37.38c1.677-4.33 4.789-8.202 8.166-10.152l29.116-16.81c2.555-1.476 4.966-1.678 6.724-.656z" opacity="1" data-original="#4075c1"></path><path fill="#5789dc" d="M108.67 97.868c3.377-1.95 6.501-1.677 8.202.708l14.632 20.567c1.7 2.385 1.713 6.52.031 10.858l-14.468 37.37c-1.682 4.337-4.794 8.21-8.172 10.16l-29.115 16.81c-3.377 1.95-6.501 1.677-8.197-.705L56.94 173.068c-1.696-2.387-1.708-6.523-.031-10.858l14.478-37.38c1.677-4.329 4.789-8.202 8.166-10.152z" opacity="1" data-original="#5789dc"></path><path fill="#ffffff" d="M75.537 192.754c-.724 0-1.22-.243-1.608-.788l-14.642-20.568c-.916-1.288-1.176-4.31.31-8.149l14.477-37.379c1.447-3.736 4.098-7.07 6.92-8.698l29.115-16.81c1.299-.75 2.24-.907 2.803-.907.727 0 1.225.245 1.615.793l14.63 20.565c.921 1.29 1.181 4.308-.307 8.147l-14.469 37.37c-1.45 3.742-4.104 7.078-6.925 8.707l-29.116 16.81c-1.298.75-2.24.907-2.803.907z" opacity="1" data-original="#ffffff"></path><path fill="#b0c4ff" d="m81.802 155.998 3.12-1.802.008 2.666-3.12 1.801.017 5.943-2.658 1.534-.017-5.942-9.28 5.358-.01-2.988 9.653-21.05 2.242-1.295zm-2.702 1.56-.031-11.02-6.752 14.936zM100.018 133.642c.95 1.46 1.433 3.932 1.443 7.418.01 3.303-.414 6.287-1.263 8.94-1.232 3.818-3.257 6.54-6.074 8.167-2.542 1.468-4.438 1.295-5.686-.525-1.04-1.519-1.565-4.061-1.575-7.628-.008-2.761.295-5.312.911-7.65 1.151-4.363 3.249-7.42 6.292-9.178 2.738-1.58 4.723-1.43 5.952.456zm-2.628 17.744c.813-1.875 1.214-4.725 1.203-8.552-.008-2.76-.31-4.863-.906-6.303-.595-1.445-1.747-1.673-3.45-.69-1.567.905-2.71 2.413-3.43 4.525-.718 2.108-1.072 4.81-1.063 8.105.007 2.478.246 4.335.713 5.574.715 1.89 1.93 2.337 3.643 1.348 1.379-.795 2.474-2.133 3.29-4.007M115.461 136.565l3.117-1.8.008 2.666-3.117 1.8.016 5.942-2.657 1.534-.017-5.942-9.28 5.358-.01-2.988 9.65-21.048 2.245-1.297zm-2.702 1.56-.031-11.02-6.752 14.936z" opacity="1" data-original="#b0c4ff" class=""></path><path fill="#f7b2b2" d="M173.112 114.685s-2.75-6.502-7.21-6.505c-1.514-.002-.27 1.99.637 3.213.139.187-.075.428-.274.31-2.76-1.643-10.226-5.657-10.552-1.23-.4 5.437 14.94 11.906 14.94 11.906 1.785 1.397 3.903.03 6.111-2.085z" opacity="1" data-original="#f7b2b2" class=""></path><path fill="#f4d600" d="M211.67 122.92s-15.536 18.852-21.913 17.352c-3.748-.893-15.068-12.7-19.104-17.893 2.451.383 3.774-5.458 2.46-7.694l14.298 10.484a2.285 2.285 0 0 0 3.427-.885c4.354-9.457 8.579-19.348 15.755-19.59z" opacity="1" data-original="#f4d600" class=""></path><path fill="#e5c400" d="M211.672 122.92s-15.538 18.857-21.92 17.353c-3.748-.896-15.062-12.696-19.099-17.894 1.183.188 2.101-1.073 2.588-2.677 2.08 1.582 4.158 3.174 6.238 4.756.895.675 1.824 1.393 2.322 2.41.287.576.42 1.228.719 1.815 1.161 2.256 4.203 2.61 6.746 2.654 1.217.033 2.433.055 3.66.077.753.022 1.538.033 2.246-.243 2.333-.929 2.521-4.28 4.423-5.917 1.051-.896 2.577-1.216 3.418-2.322 1.062-1.394.597-3.484 1.493-4.988.365-.597.907-1.062 1.493-1.438a7.714 7.714 0 0 1 3.55-1.227z" opacity="1" data-original="#e5c400"></path><path fill="#dde9fe" d="M222.859 237.11c-.41-.13-.81-.27-1.19-.45.38.18.78.33 1.19.45z" opacity="1" data-original="#dde9fe" class=""></path><path fill="#dde9fe" d="m257.999 188.59-.1 30.58c-.01 1.06-.69 2.1-2.07 2.9l-24.62 14.31c-2.08 1.21-5.14 1.51-7.72.9-.21-.05-.42-.11-.63-.17-.41-.13-.81-.27-1.19-.45-.18-.09-.36-.18-.54-.28l-33.35-19.26c-1.4-.8-2.1-1.88-2.1-2.93l.1-30.58c0-1.05.69-2.1 2.07-2.9l24.62-14.31c2.78-1.61 7.29-1.61 10.08 0l33.35 19.25c1.41.81 2.11 1.88 2.1 2.94z" opacity="1" data-original="#dde9fe" class=""></path><path fill="#c7d8ef" d="m257.998 188.588-.094 30.583c-.01 1.053-.7 2.097-2.076 2.9l-24.619 14.312c-2.775 1.607-7.292 1.607-10.077 0l-33.349-19.262c-1.408-.803-2.107-1.878-2.107-2.931l.104-30.584c0 1.064.7 2.129 2.097 2.942l33.36 19.252c2.785 1.606 7.302 1.606 10.076 0l24.62-14.312c1.376-.804 2.065-1.847 2.065-2.9z" opacity="1" data-original="#c7d8ef" class=""></path><path fill="#b3c9e2" d="M226.695 206.982c-1.96.066-3.96-.318-5.459-1.182l-33.359-19.252c-1.398-.813-2.097-1.878-2.097-2.942l-.104 30.584c0 1.053.699 2.128 2.107 2.931l33.349 19.262c1.526.88 3.569 1.26 5.563 1.176z" opacity="1" data-original="#b3c9e2"></path><path fill="#dde9fe" d="M255.899 185.652c2.79 1.612 2.805 4.226.032 5.838l-24.621 14.308c-2.773 1.611-7.287 1.611-10.078 0l-33.35-19.254c-2.79-1.611-2.805-4.226-.032-5.837l24.622-14.309c2.772-1.611 7.286-1.611 10.077 0z" opacity="1" data-original="#dde9fe" class=""></path><path fill="#3caf6d" d="M180.698 219.715v7.758c0 .168-.012.347-.036.515a4.31 4.31 0 0 1-2.845 3.586c-7.626 2.725-15.994 3.909-24.66 4.447-.97.06-1.95 0-2.882-.3-3.263-1.04-2.988-3.633-1.398-5.69a7.978 7.978 0 0 1 1.817-1.709l13.962-8.427z" opacity="1" data-original="#3caf6d"></path><path fill="#54d391" d="M180.698 219.715v7.758c0 .168-.012.347-.036.515-.454.525-1.04.92-1.721 1.171-7.639 2.726-16.006 3.897-24.661 4.447-.98.06-1.96-.012-2.893-.31-2.044-.646-2.702-1.902-2.51-3.264a7.978 7.978 0 0 1 1.817-1.71l13.962-8.427z" opacity="1" data-original="#54d391" class=""></path><path fill="#3caf6d" d="M209.225 234.022v6.718a6.27 6.27 0 0 1-1.638 4.244c-.848.92-1.9 1.889-3.072 2.881-1.147.909-2.211 1.853-3.132 2.857-1.554 1.674-3.466 3-5.547 3.945-4.877 2.2-9.527 2.367-13.627-.132-1.41-.86-2.295-2.462-2.092-4.1.06-.43.155-.873.31-1.315 1.077-3.12 4.567-6.742 9.863-10.543 1.446-1.399 2.625-3.299 3.104-4.936z" opacity="1" data-original="#3caf6d"></path><path fill="#54d391" d="M209.225 234.022v3.335a6.27 6.27 0 0 1-1.638 4.244c-.848.92-1.9 1.889-3.072 2.881-1.147.909-2.211 1.853-3.132 2.857-1.554 1.674-3.466 3-5.547 3.945-4.877 2.2-9.527 2.367-13.627-.132a4.443 4.443 0 0 1-1.781-2.032c1.076-3.12 4.566-6.742 9.862-10.543 1.446-1.399 2.625-3.299 3.104-4.936z" opacity="1" data-original="#54d391" class=""></path><path fill="#353437" d="M244.255 173.32v9.685c0 3.366-1.388 6.59-3.857 8.878-5.132 4.756-4.779 3.218-13.789 6.837l-13.667 5.03a7.826 7.826 0 0 0-4.956 5.733l1.277 25.243c.007.14-.006.283-.047.416-1.861 6.063-15.832 4.03-15.832-1.75 0 0-2.562-36.092 2.444-42.293 6.458-8 25.654-17.78 25.654-17.78z" opacity="1" data-original="#353437" class=""></path><path fill="#29282b" d="M244.253 173.318v9.688c0 3.362-1.382 6.591-3.86 8.88-5.131 4.756-4.777 3.219-13.78 6.835l-13.669 5.032a7.812 7.812 0 0 0-4.954 5.73l1.271 25.248c.011.132 0 .276-.044.409-.575 1.89-2.333 2.997-4.468 3.44-1.382-1.24-2.19-3.142-2.543-5.01-.465-2.4-.354-4.878-.764-7.278-.265-1.57-.74-3.196-.287-4.722.243-.796.73-1.515.785-2.345.11-1.935-2.101-3.24-2.455-5.142-.177-.918.122-1.858.41-2.754 1.304-4.026 2.73-8.24 5.85-11.092.575-.531 1.227-1.029 1.503-1.759.2-.487.2-1.017.332-1.526.542-1.958 2.887-2.798 4.922-2.864 2.035-.056 4.158.353 6.06-.399.653-.254 1.261-.641 1.936-.84 1.15-.332 2.389-.078 3.55-.354 2.057-.509 3.528-2.621 5.629-2.798.608-.055 1.272.055 1.78-.277.52-.342.686-1.006 1.084-1.481.575-.664 1.526-.83 2.378-1.095.84-.266 1.747-.863 1.758-1.748 0-.719-.597-1.283-.884-1.957-.642-1.482.387-3.163 1.592-4.236.387-.343.819-.708.918-1.216.155-.775-.52-1.45-.785-2.19-.265-.72-.122-1.482.232-2.179h6.503z" opacity="1" data-original="#29282b" class=""></path><path fill="#353437" d="M199.994 162.758s-28.995 8.67-33.454 18.255c-5.756 12.374.747 30.035-1.68 37.026-.6 1.723.155 3.632 1.784 4.453 3.512 1.77 10.106 1.59 13.406-1.769.282-.286.488-.635.65-1.002 1.772-4.025-3.82-17.92-.573-25.291a6.054 6.054 0 0 1 2.948-3.031l32.43-13.879-4.95-12.551z" opacity="1" data-original="#353437" class=""></path><path fill="#29282b" d="m215.51 177.52-32.437 13.88a5.996 5.996 0 0 0-2.942 3.03c-3.251 7.377 2.345 21.267.564 25.293a3.142 3.142 0 0 1-.641.995c-2.466 2.51-6.769 3.24-10.252 2.71-1.15-2.234-1.24-5.043-.056-7.266.675-1.26 1.692-2.311 2.411-3.539.73-1.239 1.128-2.81.487-4.08-.177-.333-.41-.642-.542-.996-.42-1.173.498-2.367 1.294-3.34.785-.973 1.537-2.356.84-3.395-.342-.498-.984-.808-1.15-1.394-.144-.498.11-1.017.299-1.504.73-1.869.53-4.07-.52-5.773-.464-.763-1.106-1.46-1.228-2.344-.154-1.129.598-2.18 1.438-2.953a10.396 10.396 0 0 1 6.404-2.71c.586-.033 1.183-.022 1.725-.232 1.35-.52 1.825-2.135 2.754-3.24 1.747-2.069 4.954-2.102 7.564-1.35.73.221 1.493.487 2.256.354.542-.088 1.029-.376 1.493-.686 3.108-2.068 5.807-5.396 9.544-5.452 1.483-.022 3.23.41 4.236-.674.586-.62.697-1.56 1.194-2.256.487-.675 1.261-1.018 2.102-1.095z" opacity="1" data-original="#29282b" class=""></path><path fill="#ffea02" d="M241.616 123.842c-10.515-9.34-21.4-16.072-31.74-19.008-2.924-.83-6.123.123-8.061 2.465-5.284 6.383-5.17 18.47-3.647 32.043l1.946 24.954c1.411 12.702 27.097 22.755 38.303 17.048 3.234-1.647 5.923-4.397 5.838-8.025-.692-19.267-.004-45.152-2.64-49.477z" opacity="1" data-original="#ffea02" class=""></path><path fill="#f7b2b2" d="m213.14 110.719-.909 5.334c-.158.93-.164 1.895.105 2.8.77 2.592 2.969 3.122 5.822 2.567 3.35-.65 6.318-2.58 8.427-5.263l.646-.821c.631-.803.927-1.82.823-2.836l-.608-5.988 1.142-2.189-.263-2.476s-9.084 2.484-9.544 2.64c-.46.156-3.807 4.057-3.807 4.057z" opacity="1" data-original="#f7b2b2" class=""></path><path fill="#ffc8a9" d="M206.242 89.04c-.008 12.476 1.28 25.213 7.585 26.22 4.825.038 9.273-2.788 13.32-6.147a12.495 12.495 0 0 0 3.884-5.745l2.324-7.12s-.823-5.726-1.522-6.671c-.7-.946-13.321-5.444-13.647-5.428-.325.016-11.944 4.89-11.944 4.89z" opacity="1" data-original="#ffc8a9" class=""></path><path fill="#f7b2b2" d="M206.242 89.04c-.008 12.476 1.28 25.213 7.585 26.22 4.825.038 9.273-2.788 13.32-6.147a12.495 12.495 0 0 0 3.884-5.745l2.324-7.12s-.823-5.726-1.522-6.671c-.7-.946-13.321-5.444-13.647-5.428-.325.016-11.944 4.89-11.944 4.89z" opacity="1" data-original="#f7b2b2" class=""></path><path fill="#eaa7a7" d="m233.354 96.243-2.325 7.125a12.575 12.575 0 0 1-3.878 5.748c-4.055 3.36-8.502 6.178-13.328 6.14-1.403-.228-2.552-1.024-3.5-2.274.266.113.543.177.834.227 4.826.038 9.273-2.792 13.316-6.152a12.464 12.464 0 0 0 3.89-5.736l2.325-7.125s-.568-3.967-1.162-5.837c1.25.544 2.135.986 2.312 1.213.695.948 1.516 6.67 1.516 6.67z" opacity="1" data-original="#eaa7a7"></path><path fill="#353437" d="M229.026 107.164c1.325-1.528 3.342-5.29 4.25-7.22 1.424-3.03 2.237-6.331 2.15-9.678-.108-4.19-1.43-7.555-4.314-9.863-1.29-1.032-2.822-1.706-4.408-2.165-5.98-1.731-12.49-1.141-17.37 2.86-5.96 4.684-5.284 7.656-.6 9.155 2.226.754 4.607 1.05 7.108.99.995-.025 1.982-.176 2.962-.353 1.833-.331 3.447-.28 4.661.467.47.29.742.818.713 1.37l-.187 3.546a1.5 1.5 0 0 0 1.443 1.579 1.491 1.491 0 0 0 1.514-1.159c.342-1.556 1.08-2.425 2.21-2.611 1.105-.183 2.11.699 2.221 1.813.215 2.17-1.52 7.122-2.353 11.269z" opacity="1" data-original="#353437" class=""></path><path fill="#29282b" d="M235.426 90.267c.088 3.348-.72 6.645-2.148 9.677-.91 1.933-2.93 5.698-4.257 7.214.076-.38.164-.77.252-1.175a61.278 61.278 0 0 0 1.92-3.664c1.428-3.032 2.237-6.342 2.16-9.69-.113-4.181-1.44-7.554-4.32-9.854-1.288-1.035-2.817-1.705-4.409-2.172-5.975-1.731-12.494-1.137-17.37 2.867-.544.43-1.024.834-1.466 1.226.682-1.061 1.845-2.262 3.55-3.6 4.876-3.993 11.382-4.587 17.37-2.856 1.58.455 3.108 1.137 4.41 2.16 2.88 2.312 4.194 5.673 4.308 9.867z" opacity="1" data-original="#29282b" class=""></path><path fill="#dde9fe" d="m182.793 102.444-.048 45.518c-.001.38-.251.76-.751 1.051-1.007.585-2.644.585-3.657 0-.51-.294-.764-.68-.763-1.066l.048-45.518c-.001.386.254.773.763 1.067 1.013.585 2.65.585 3.657 0 .5-.29.75-.671.75-1.052z" opacity="1" data-original="#dde9fe" class=""></path><path fill="#f7b2b2" d="m177.56 136.208.014-.824c-3.265 1.208-4.635 3.312-4.252 6.17.284 2.123 1.73 3.914 3.725 4.693l6.389 2.495s6.338 1.962 6.552 2.105c.213.142-1.282-8.261-1.282-8.261-.726-1.169-1.596-1.804-2.728-2.23l-3.22-4.892-.072.683c.02 1.583-5.107 1.644-5.127.061z" opacity="1" data-original="#f7b2b2" class=""></path><path fill="#f4d600" d="m230.62 124.882-16.365 23.57a3.061 3.061 0 0 1-3.421 1.179l-24.855-9.274c2.24.804-.304 9.188-2.543 8.385 0 0 25.063 16.66 33.299 15.146 7.58-1.394 20.17-21.336 26.105-30.495a7.449 7.449 0 0 0-1.082-9.418c-3.229-3.112-8.455-2.686-11.138.907z" opacity="1" data-original="#f4d600" class=""></path><path fill="#e5c400" d="M242.838 133.394c-5.94 9.157-18.525 29.097-26.1 30.49-8.118 1.493-32.56-14.642-33.278-15.129 1.349.443 2.809-2.455 3.251-4.976 2.555 1.16 4.679 4.445 7.62 4.357.785-.022 1.626-.288 2.323.088.31.166.542.454.774.72a17.186 17.186 0 0 0 9.3 5.44c.399.089.82.155 1.195.321.398.177.741.443 1.106.675 2.422 1.56 5.784 1.482 8.129-.177.663-.476 1.25-1.05 1.98-1.383 1.127-.508 2.455-.353 3.583-.829 3.34-1.382 2.908-6.658 5.795-8.814.907-.675 2.079-.985 2.864-1.792 1.869-1.891.664-5.242 1.902-7.587 1.128-2.134 3.849-2.764 5.707-4.29.287-.244.575-.543.62-.907.066-.553-.399-.996-.72-1.438-1.194-1.66-.575-3.893.244-5.828a7.396 7.396 0 0 1 2.62 1.636 7.44 7.44 0 0 1 1.085 9.423z" opacity="1" data-original="#e5c400"></path><ellipse cx="179.489" cy="101.498" fill="#dde9fe" rx="1.498" ry="2.586" transform="rotate(-89.83 179.513 101.49)" opacity="1" data-original="#dde9fe" class=""></ellipse><path fill="#6a95d3" d="m203.179 79.21-.06 34.75c-.01 1.49-.53 2.54-1.38 3.02l-3.87 2.19c-.03.02-.06.04-.09.05-.86.5-2.04.43-3.34-.32l-32.56-18.8c-2.6-1.5-4.7-5.14-4.69-8.13l.06-34.75c.01-1.5.54-2.54 1.4-3.02.05-.04.1-.06.15-.09l3.78-2.14c.85-.5 2.04-.43 3.35.32l32.56 18.8c2.6 1.51 4.7 5.14 4.69 8.12z" opacity="1" data-original="#6a95d3"></path><path fill="#6a95d3" d="M158.62 54.21c.862-.501 2.049-.427 3.353.324l32.558 18.8c2.601 1.495 4.701 5.135 4.694 8.12l-.066 34.748c-.008 1.489-.531 2.528-1.379 3.022l3.958-2.241c.848-.487 1.371-1.533 1.378-3.022l.067-34.748c.007-2.985-2.093-6.618-4.694-8.121L165.93 52.293c-1.312-.752-2.498-.825-3.353-.324z" opacity="1" data-original="#6a95d3"></path><path fill="#b0c4ff" d="M161.976 54.535c-2.602-1.502-4.717-.297-4.725 2.687l-.066 34.748c-.009 2.99 2.092 6.628 4.694 8.13l32.558 18.798c2.597 1.499 4.712.294 4.72-2.696l.067-34.747c.008-2.984-2.093-6.623-4.69-8.123z" opacity="1" data-original="#b0c4ff" class=""></path><path fill="#ffffff" d="M196.546 117.331c.393 0 .4-1.088.4-1.135l.067-34.747c.006-2.198-1.668-5.096-3.584-6.202L160.87 56.45c-.548-.316-.888-.35-1.01-.35-.392 0-.4 1.083-.4 1.129l-.066 34.747c-.006 2.2 1.671 5.102 3.59 6.21l32.557 18.797c.545.314.884.348 1.004.348z" opacity="1" data-original="#ffffff"></path><path fill="#285294" d="M171.142 78.252a9.882 9.882 0 0 1 .942 4.294c-.005 1.645-.372 2.8-1.102 3.47-.858.788-2.075.728-3.656-.185-1.475-.852-2.633-2.083-3.472-3.689a10.495 10.495 0 0 1-1.12-4.748c.005-1.49.331-2.579.979-3.265.83-.884 2.056-.857 3.673.076 1.694.978 2.946 2.327 3.756 4.047zm-1.166 6.356c.513-.649.771-1.585.775-2.81a7.712 7.712 0 0 0-.875-3.637c-.587-1.131-1.392-1.992-2.414-2.583-.992-.572-1.804-.647-2.432-.226-.63.42-.946 1.392-.95 2.916a8.275 8.275 0 0 0 .797 3.554c.534 1.147 1.406 2.069 2.612 2.765 1.143.66 1.972.668 2.487.02M178.583 84.763c.619 1.05.929 2.245.925 3.586-.004 1.294-.281 2.206-.832 2.735-.551.527-1.404.458-2.557-.207-.96-.554-1.724-1.37-2.287-2.445a7.367 7.367 0 0 1-.839-3.5c.004-1.35.303-2.255.902-2.71.599-.454 1.401-.392 2.405.187.902.521 1.662 1.306 2.283 2.354zm-.744 4.924c.293-.51.44-1.18.442-2.01.002-.75-.102-1.422-.308-2.011-.33-.93-.9-1.63-1.708-2.097-.72-.415-1.242-.401-1.569.041-.33.44-.495 1.105-.497 1.995a6.03 6.03 0 0 0 .484 2.421 3.615 3.615 0 0 0 1.55 1.753c.78.45 1.315.419 1.606-.092M186.148 89.181c.55 1.015.823 2.173.82 3.467-.006 1.75-.406 2.77-1.205 3.06-.506.184-1.094.083-1.763-.303a4.389 4.389 0 0 1-1.325-1.164c-.209-.27-.442-.662-.696-1.174l-.011 4.103-1.177-.68.032-11.198 1.143.66-.003 1.065c.237-.23.493-.364.772-.405.398-.069.863.047 1.4.357.791.457 1.462 1.196 2.013 2.212zm-.932 4.954c.365-.319.547-1.002.55-2.053a6.369 6.369 0 0 0-.236-1.79c-.303-1.061-.857-1.824-1.668-2.293-.814-.47-1.37-.323-1.674.438-.163.408-.244.998-.246 1.766a5.864 5.864 0 0 0 .236 1.724c.3 1.004.858 1.741 1.666 2.208.549.317 1.007.318 1.372 0M190.752 90.776c1.054.608 1.81 1.4 2.276 2.38.29.618.43 1.184.42 1.701l-1.11-.64c-.021-.32-.114-.65-.28-.998-.268-.51-.734-.956-1.4-1.34-.444-.256-.78-.354-1.01-.29-.229.062-.343.254-.344.575 0 .35.148.716.448 1.1.173.224.43.484.769.774l.777.667c.843.722 1.408 1.276 1.694 1.662.456.607.683 1.284.681 2.022-.002.716-.24 1.197-.715 1.443-.473.247-1.193.092-2.158-.465-1.04-.6-1.775-1.297-2.207-2.089-.431-.792-.663-1.598-.69-2.414l1.13.652c.034.471.13.87.29 1.203.294.605.809 1.12 1.538 1.542.435.251.818.364 1.151.338.33-.028.497-.267.499-.723 0-.346-.131-.682-.395-1.018-.17-.206-.505-.526-1.005-.962l-.933-.81c-.596-.513-1.036-.958-1.317-1.33-.504-.658-.755-1.307-.754-1.954.003-.757.243-1.236.72-1.431.478-.195 1.121-.06 1.925.405z" opacity="1" data-original="#285294"></path></g></svg>