<svg xmlns="http://www.w3.org/2000/svg" version="1.1" xmlns:xlink="http://www.w3.org/1999/xlink" width="512" height="512" x="0" y="0" viewBox="0 0 1000 900" style="enable-background:new 0 0 512 512" xml:space="preserve" class=""><g><linearGradient id="a" x1="1602.752" x2="1615.356" y1="8.142" y2="28.624" gradientTransform="scale(-1 1) rotate(13 .58 -9850.768)" gradientUnits="userSpaceOnUse"><stop offset="0" stop-color="#fff"></stop><stop offset=".138" stop-color="#fff" stop-opacity=".862"></stop><stop offset="1" stop-color="#fff" stop-opacity="0"></stop></linearGradient><linearGradient id="b" x1="1604.895" x2="1647.107" y1="-32.427" y2="78.428" gradientTransform="scale(-1 1) rotate(13 .58 -9850.768)" gradientUnits="userSpaceOnUse"><stop offset="0" stop-color="#fff"></stop><stop offset=".044" stop-color="#fff" stop-opacity=".949"></stop><stop offset=".867" stop-color="#fff" stop-opacity="0"></stop></linearGradient><path fill="#f5f9ff" d="M884.9 676.1c-.3 42.4-17.8 89.7-46.7 120.8H140.5c-25.6-16.9-49.2-39-60.6-67.5s-8.2-64.4 13.9-85.8c18.7-18.2 48.5-24.6 61.5-47.3 11.2-19.8 5.2-45.3-6.9-64.5s-29.5-34.5-43.2-52.6c-42.2-55.9-42.6-140.4.9-195.3s127.7-73.5 189.2-40.2c19.4 10.5 37.3 25.7 59.1 29.1 30.7 4.6 59-15.3 84.7-32.7 53.8-36.4 113.6-66.5 178.1-74.5s134.2 8.6 180.1 54.5 61.4 123.5 26.8 178.4c-15.3 24.2-39.7 45.4-40.8 74-1.4 35.9 33.6 60.6 57.7 87.3 28.1 31.6 44.2 73.9 43.9 116.3z" opacity="1" data-original="#f5f9ff"></path><path fill="#fdc5ae" fill-rule="evenodd" d="m618.582 635.22 11.437 21.12-30.375 16.606-12.378-24.54z" clip-rule="evenodd" opacity="1" data-original="#fdc5ae"></path><path fill="#f38255" d="M689.4 685.4c-9.1 5.7-28.9 12.8-39.3 11.9s-31-2.4-31-2.4c.5 3.7 12.6 19.5 12.6 19.5l-13 6.3s-9.8-16.1-15.3-23c-5.5-6.8-10.6-32.6-10.6-32.6l38.4-17.3s10 15.3 30.1 18.6c19.7 3.2 24.2-11 33.8-6.1 12.4 6.4 3.4 19.3-5.7 25.1z" opacity="1" data-original="#f38255"></path><path fill="#bccbe3" d="m494.256 358.53 16.874-74.86 3.611.815-16.874 74.859z" opacity="1" data-original="#bccbe3"></path><path fill="#243149" d="M520.4 284.8 503 362.1c-.2.8-1 1.3-1.8 1.2l-4.4-1c-.8-.2-1.3-1-1.2-1.8l17.5-77.3c.2-.8 1-1.3 1.8-1.2l4.4 1c.8.2 1.3 1 1.1 1.8z" opacity="1" data-original="#243149"></path><path fill="#869ec9" d="m401.058 625.485 9.9-.02.292 146.1-9.9.02z" opacity="1" data-original="#869ec9" class=""></path><path fill="#384562" d="M390.3 622.6c0 8.8 7.2 15.9 16 15.9s15.9-7.2 15.9-16-7.2-15.9-16-15.9c-8.8.1-15.9 7.2-15.9 16z" opacity="1" data-original="#384562"></path><path fill="#869ec9" d="M379.5 615.1v3.7c0 1.9 1.5 3.4 3.4 3.4l46.7-.1c1.9 0 3.4-1.5 3.4-3.4V615zM331.7 777.9l-8.3-6.5c20.1-25.8 50.4-40.7 83.1-40.8s63.1 14.6 83.3 40.4l-8.3 6.5c-18.2-23.2-45.6-36.4-75-36.4s-56.7 13.5-74.8 36.8z" opacity="1" data-original="#869ec9" class=""></path><circle cx="323.9" cy="780.9" r="15.6" fill="#384562" opacity="1" data-original="#384562"></circle><circle cx="323.9" cy="780.9" r="9.3" fill="#5972ba" opacity="1" data-original="#5972ba"></circle><circle cx="406.6" cy="780.7" r="15.6" fill="#384562" opacity="1" data-original="#384562"></circle><circle cx="406.6" cy="780.7" r="9.3" fill="#5972ba" opacity="1" data-original="#5972ba"></circle><circle cx="489.4" cy="780.5" r="15.6" fill="#384562" opacity="1" data-original="#384562"></circle><circle cx="489.4" cy="780.5" r="9.3" fill="#5972ba" opacity="1" data-original="#5972ba"></circle><path fill="#869ec9" d="m442.3 582-152.2.4c-.3-32.7-1.9-148.6-11.6-175.2-3.4-9.5-6.6-24.8-9.2-41.7-5.9-38.6-8.3-85.5-2.3-90.3 8.6-6.9 108.8-5.4 124.7 3.2 7.8 4.2 8.8 38.2 10.9 75.9 0 .7.1 1.4.1 2.1.1 1.2.1 2.4.2 3.6 2.2 38 5.9 78.5 19 95.3 23.5 29.9 21.3 107.6 20.4 126.7z" opacity="1" data-original="#869ec9" class=""></path><path fill="#5972ba" d="M402.9 359.8c-5.9 4.7-14.7 7.5-21.4 7.5l-89.8.2v-4.4l89.8-.2c7.8 0 16.9-3.9 21.1-8.8 0 .7.1 1.4.1 2.1 0 1.3.1 2.4.2 3.6z" opacity="1" data-original="#5972ba"></path><path fill="#384562" fill-rule="evenodd" d="M413.7 303.4c-4.6-5.5-11.3-9.4-13.9-16.1-3.1-7.8 2-16.5 1.4-24.8-1.6-22.2-21.5-32.7-36.2-32.5-21 .3-41.7 19-38.2 33.3 1.2 5.1 3.6 9.9 4.7 15s.5 11.1-3.2 14.7c-4 3.9-10.8 4.4-14.2 8.8-2.5 3.2-2.5 7.6-1.9 11.6s1.7 8 1.3 12c-.7 6.5-5.3 11.8-8.7 17.4-4.4 7.2-7.2 15.6-6.8 24s4.1 16.9 10.8 22.1c10.3 8.1 25.1 7.2 37.7 3.6 17.2-4.8 33.2-13.8 46.5-25.8 9.8-8.8 22.5-21.1 25.7-34.4 2.2-10 1.8-20.7-5-28.9z" clip-rule="evenodd" opacity="1" data-original="#384562"></path><path fill="#5972ba" d="M278.5 407.1c9.7 26.6 11.3 142.5 11.6 175.2l22.4-.1c-.3-32.7-1.9-148.6-11.6-175.2-11.3-31-20.2-125.1-11.5-132 3-2.4 16.9-3.8 34.5-4.2-27.1-.4-52.7.9-56.9 4.3-8.7 6.9.2 101 11.5 132z" opacity="1" data-original="#5972ba"></path><path fill="#5972ba" d="m290.1 576.3.1 26.2c0 7 5.7 12.6 12.7 12.6l224.6-.5c7 0 12.6-5.7 12.6-12.7v-13.5c0-7-5.7-12.6-12.7-12.6z" opacity="1" data-original="#5972ba"></path><path fill="#869ec9" d="m445.7 575.9.1 38.9 81.7-.2c7 0 12.6-5.7 12.6-12.7v-13.5c0-7-5.7-12.6-12.7-12.6z" opacity="1" data-original="#869ec9" class=""></path><path fill="#fdc5ae" fill-rule="evenodd" d="m519.5 370.4 4.2-21.4c1.1-5.5-.2-11.2-3.6-15.6-3.5-4.6-8-8.4-13.1-11l-12.8-6.5c-.7-.4-1.6-.1-2 .6-.2.3-.2.7-.1 1 .5 2 1.7 3.7 3.4 4.8l11.3 7.4-16.1-6.4c-.7-.3-1.4.1-1.7.7-.1.2-.1.4-.1.7.2 1.4 1 2.6 2.2 3.4l14.2 9-13-4.4c-.8-.3-1.7.2-1.9.9-.1.2-.1.3-.1.5 0 1.3.7 2.5 1.8 3l14.6 7.5-11.2-2.2c-.8-.2-1.6.4-1.8 1.2v.3c0 1.1.7 2.2 1.7 2.7l11.3 5.4-.9 2.9c-1 3.1-12.3 11.9-12.3 11.9z" clip-rule="evenodd" opacity="1" data-original="#fdc5ae"></path><path fill="#f38255" fill-rule="evenodd" d="m425.8 331.4 43.1 92.9 22.9-58.3 32.1 4-20.4 77.7c-2.8 10.6-10.8 19-21.2 22.4-10.3 3.3-21.6.7-29.5-6.7l-56.3-53.6z" clip-rule="evenodd" opacity="1" data-original="#f38255"></path><path fill="#384562" fill-rule="evenodd" d="m644.1 627.7-83.4 38.5-29.1-76.7-5.1 141.1-103-8.2L446 575.7l-1.9.2-65.5-.2c-15 0-29.8-3.6-43.1-10.6-12.6-6.6-21.1-19.1-22.5-33.3-.6-8.2-1-16.2-1.2-23.7-.4-17.9.3-33.5 1.2-44.8.9-12 1.9-19.2 1.9-19.2l56.4 11.9 95.3-33.9c19.3-6.8 40.3-6.6 59.4.6 19 7.2 34.3 21.6 42.7 40z" clip-rule="evenodd" opacity="1" data-original="#384562"></path><path fill="#243149" d="M353.2 475.8c-1.2 9.1-5.9 17.7-13 23.5-6.9 5.7-15.8 8.7-24.7 8.3h-.8l-2.8.5c-.4-17.9.3-33.5 1.2-44.8 6.8-.7 18.9 1.2 24.8 1.6 7.5.4 12.9 4 13.8 4.7s1.5 6.2 1.5 6.2z" opacity="1" data-original="#243149"></path><path fill="#f38255" fill-rule="evenodd" d="M321.8 337.5c-8.1 8.6-13.2 19.7-14.3 31.5l-7 71.4c-1.2 12.2 2.5 24.5 10.3 34 7.1 8.7 19.3 11.5 29.5 6.7l107-50.5-12.5-30.3-15.8 6.6c9.7-10 14.5-18.7 14.5-26 0-10.9-7.6-18.4-7.6-32.4l1.4-8c1-5.7-1.3-11.5-5.9-15-4.8-3.7-10.8-5.5-16.9-5.2l-51.8 2.8c-11.8.7-22.9 5.8-30.9 14.4z" clip-rule="evenodd" opacity="1" data-original="#f38255"></path><path fill="#e26439" fill-rule="evenodd" d="M413 376.8c3 11.2 7.6 19.6 14 24.6z" clip-rule="evenodd" opacity="1" data-original="#e26439" class=""></path><path fill="#fdc5ae" fill-rule="evenodd" d="m396.3 270.4 6.1 25.3c.6 2.7-.1 5.5-2 7.5-1.9 2.1-4.6 3.4-7.4 3.7l-5.5.6 2.8 15.1c1.5 8-3.7 15.7-11.7 17.2-.3.1-.6.1-.9.1-8.6 1.1-16.5-5-17.7-13.6l-3.6-26c-5.1-1.9-7.6-5.1-7.6-9.5 0-6.7 8.4-5.5 10.2-2.2 12.1-6.3 18.6-18.1 19.5-35.6 8.8 1.9 15.7 8.7 17.8 17.4z" clip-rule="evenodd" opacity="1" data-original="#fdc5ae"></path><path fill="#f9b59d" d="M353.3 288.2c-.5.2-1 .5-1.2.9s-.2.8-.1 1.3c.1 1 .3 2 .8 2.9.4.8 1.1 1.6 1.8 2.4.8.7 1.7 1.4 2.6 2.2-1.2-.1-2.4-.4-3.4-1-1.1-.6-2-1.5-2.6-2.7s-.7-2.5-.6-3.7c.1-.6.3-1.4.9-1.9.5-.5 1.2-.5 1.8-.4z" opacity="1" data-original="#f9b59d"></path><path fill="#f9b59d" fill-rule="evenodd" d="M366.6 303c6.8 3 13.8 4.4 20.9 4.4l2.9 15.3z" clip-rule="evenodd" opacity="1" data-original="#f9b59d"></path><path fill="#ffffff" fill-rule="evenodd" d="m384.128 297.351 11.4-5.1c.5 4-.3 6.7-2.5 8.1-2.1 1.4-5.1.4-8.9-3z" clip-rule="evenodd" opacity="1" data-original="#ffffff"></path><g fill="#243149" fill-rule="evenodd" clip-rule="evenodd" transform="translate(61.428 22.351)"><path d="m317.7 252.3-4 2.3c-.3.2-.5.6-.3.9.2.3.6.5 1 .3l4-2.3c.3-.2.5-.6.3-.9-.2-.4-.7-.5-1-.3zM327.9 248.2l4.5-1.1c.4-.1.7.1.8.5.1.4-.2.8-.5.9l-4.5 1.1c-.4.1-.7-.1-.8-.5-.1-.4.1-.8.5-.9z" fill="#243149" opacity="1" data-original="#243149"></path><circle cx="321" cy="259.4" r="1.3" fill="#243149" opacity="1" data-original="#243149"></circle><circle cx="332.1" cy="254.6" r="1.3" fill="#243149" opacity="1" data-original="#243149"></circle></g><path fill="#e26439" fill-rule="evenodd" d="M356 421.3c-3.2-1.7-5.2-4.9-5.2-8.5l-.2-36.8-7.4 58.1 91.5-33.7-68 22c-3.6 1-7.4.7-10.7-1.1z" clip-rule="evenodd" opacity="1" data-original="#e26439" class=""></path><path fill="#fdc5ae" fill-rule="evenodd" d="M498 377.1c0 2-.6 4-1.8 5.7l-5.3 7.3c-1.6 3.7-3.7 7.1-6.2 10.1-2.5 3.1-5.4 5.8-8.7 8l-26.7 18.4-3 1.8-10.6-25.7c2.6-1.6 5-3.5 7.2-5.6 2.8-2.8 5.8-5.5 9-8l8-6.3c.9-.7 2.1-.5 2.8.3.3.3.4.8.4 1.2 0 2.7-.7 5.4-2.1 7.7l-4.6 7.6 5.8-2.4c8.8-3.6 17.1-8.5 24.6-14.4l8.8-6.9c.7-.5 1.6-.4 2.1.3.2.2.3.5.3.9z" clip-rule="evenodd" opacity="1" data-original="#fdc5ae"></path><g fill="none" stroke-width=".65"><path stroke="#fff" d="M359.5 322.7c2 11.9 7.5 17.7 16.6 17.3 13.6-.7 15.1-13.1 14.3-18.6" fill="" opacity="1"></path><path stroke="#000" d="M353.1 475.8c-1.2 9.1-5.9 17.7-13 23.5s-16.4 8.9-25.5 8.3M342.9 332.3c-9.4 1.7-16.8 9.3-20.9 17.9s-5.3 18.3-6.4 27.7M343.7 434c17.2-5.8 58-21.2 75.2-27M454.3 607.5l-13.4 102.9 62.3 4.4M533 559.1l34.9 87.5 49.8-21.3" fill="" opacity="1"></path><path stroke="#384562" d="M355.4 231.8c-6.6 1.3-19.2 6.9-24.6 11.7s-9.3 11.9-8.5 19.1c.5 4.4 2.6 8.3 4 12.5s1.9 9.1-.6 12.7c-2.7 3.8-7.7 4.9-11.6 7.5-4 2.7-6.8 7.2-7.3 12.1-.7 6.6 2.5 13.3 1.4 19.8-.9 5-4.2 9.2-6.9 13.5s-4.8 9.7-3 14.5" fill="" opacity="1"></path></g><path fill="#fdc5ae" fill-rule="evenodd" d="m490.452 727.9-1.5 15.742-34.59 1.286 2.155-19.74z" clip-rule="evenodd" opacity="1" data-original="#fdc5ae"></path><path fill="#f38255" d="M529.1 796.1c-10.7 1.1-31.6-1.5-40.4-6.9-8.9-5.4-26.7-16-26.7-16-1.2 3.5 2.5 23.1 2.5 23.1l-14.5-.2s-1.6-18.8-3.4-27.4c-1.9-8.5 5.1-34 5.1-34l42.1 1.7s2.1 18.1 18.6 30c16.2 11.6 26.5 1 32.9 9.7 8.3 11.3-5.5 18.9-16.2 20z" opacity="1" data-original="#f38255"></path><path fill="#243149" fill-rule="evenodd" d="M531.6 589.5s-19.9-61.9-37.5-85.6c0 0 36.3 105.9 34.9 127.9z" clip-rule="evenodd" opacity="1" data-original="#243149"></path><g fill="#fff"><path d="M416.8 334.3c-1.8-1.8-3.5-3.4-3.1-4.5.2-.5 1-.7 2.1-.5s2.6.9 3.8 2.2c1.3 1.3 2 2.9 2.2 4.1.1 1.3-.2 2.1-.8 2.2s-1.2-.4-1.8-1c-.7-.7-1.5-1.6-2.4-2.5zM409.3 329.6c-1.1-.3-1.9-1.2-1.7-1.9s1.3-1.1 2.5-.7 2 1.3 1.7 2c-.2.7-1.3 1-2.5.6zM411.6 333.6c-.6-.3-1.1-.9-.9-1.4s.9-.7 1.7-.4c.7.3 1.1 1 .8 1.5s-1 .6-1.6.3z" fill="#ffffff" opacity="1" data-original="#ffffff"></path></g><path fill="#bccbe3" d="m61.361 797.192 876.6-1.754.004 1.7-876.6 1.754z" opacity="1" data-original="#bccbe3"></path><path fill="#e8edf7" d="m725.399 434.527 179-.358.032 15.8-179 .358z" opacity="1" data-original="#e8edf7"></path><path fill="#bccbe3" d="m730.993 450.317 167.9-.336.69 345.5-167.9.336z" opacity="1" data-original="#bccbe3"></path><g fill="#e8edf7"><path d="m746.791 466.085 136.3-.273.187 93.4-136.3.273zM747.046 573.385l136.3-.272.187 93.4-136.3.272zM747.2 680.586l136.3-.273.187 93.4-136.3.273z" fill="#e8edf7" opacity="1" data-original="#e8edf7"></path></g><path fill="#e26439" d="m179.162 490.414 607.1-1.214.05 25.2-607.1 1.214z" opacity="1" data-original="#e26439" class=""></path><path fill="#fbae5c" d="m208.157 515.556 549.3-1.098.042 21.3-549.3 1.098z" opacity="1" data-original="#fbae5c" class=""></path><g fill="#384562"><path d="m713.06 535.933 22.4-.045.519 259.9-22.4.045zM230.158 536.928l22.4-.045.52 259.9-22.4.045z" fill="#384562" opacity="1" data-original="#384562"></path></g><path fill="#64cc6e" d="M229.2 659.6c-19.2 28.4-30.4 69.7-39.3 70.2-10.5.7-14.5-51.4 9.5-88.2 23.1-36.2 46.1-40.6 51.2-33.4 6.5 7.9-3.2 22.5-21.4 51.4z" opacity="1" data-original="#64cc6e"></path><path fill="#339279" d="m189.7 729.7-1.1-.1c4-39.8 20.1-78.4 45.5-108.6l.9.7c-25.3 30.1-41.4 68.4-45.3 108z" opacity="1" data-original="#339279"></path><path fill="#5aad64" d="M195.7 608c-6.6 51 6.2 114-5.5 120.6-13.6 8-54.1-59.2-46.7-124.7 6.6-64.2 34.5-85.5 46.2-79.4 14.1 6.5 10.9 32.6 6 83.5z" opacity="1" data-original="#5aad64" class=""></path><path fill="#339279" d="M188.2 729.4c-21.5-56.1-25.8-118.7-12.1-176.4l1.7.4c-13.6 57.3-9.3 119.6 12.1 175.4z" opacity="1" data-original="#339279"></path><path fill="#64cc6e" d="M125.6 667c21.7 26.5 36.7 66.6 45.6 66.2 10.5-.3 9.7-52.5-17.6-86.9-26.4-33.9-49.6-36.2-54.1-28.6-5.6 8.6 5.4 22.3 26.1 49.3z" opacity="1" data-original="#64cc6e"></path><path fill="#339279" d="M171.5 733.2c-7.6-39-27.1-75.8-55-103.4l.8-.8c28.1 27.8 47.7 64.7 55.3 104z" opacity="1" data-original="#339279"></path><path fill="#fbae5c" d="m211.7 733.1-7.8 54.4c-.8 5.3-5.3 9.2-10.7 9.3l-31 .1c-5.4 0-9.9-3.9-10.7-9.2l-8.1-54.4z" opacity="1" data-original="#fbae5c" class=""></path><path fill="#32286710" d="m209.6 747.4 2.1-14.3-68.3.2 2.1 14.3z" opacity="1" data-original="#32286710" class=""></path><path fill="#fbae5c" d="M217.3 723.8v7.2c0 3.1-2.5 5.6-5.5 5.6l-70.4.2c-3.1 0-5.5-2.5-5.5-5.5v-7.2c0-3.1 2.5-5.6 5.5-5.6l70.4-.2c3 0 5.5 2.5 5.5 5.5z" opacity="1" data-original="#fbae5c" class=""></path><path fill="#bccbe3" d="m185.77 463.031 124.2-.248.055 27.4-124.2.248z" opacity="1" data-original="#bccbe3"></path><g fill="#fff"><path d="M201.8 476.6c0-3.9 3.2-7.2 7.2-7.2s7.3 3.2 7.3 7.2-3.2 7.3-7.2 7.3c-4-.1-7.3-3.3-7.3-7.3zM228.79 472.578l65.4-.13.016 8.2-65.4.13z" fill="#ffffff" opacity="1" data-original="#ffffff"></path></g><path fill="#fbae5c" d="m201.483 435.538 124.2-.249.054 27.4-124.2.249z" opacity="1" data-original="#fbae5c" class=""></path><g fill="#fff"><path d="M217.5 449.1c0-3.9 3.2-7.2 7.2-7.2s7.3 3.2 7.3 7.2-3.2 7.3-7.2 7.3-7.3-3.3-7.3-7.3zM244.502 445.085l65.4-.131.016 8.2-65.4.13z" fill="#ffffff" opacity="1" data-original="#ffffff"></path></g><path fill="#869ec9" d="m727.3 307.6-11.1 134.8c-.4 5.4-4.9 9.5-10.3 9.5l-190.9.5c-6.1 0-10.9-5.2-10.4-11.2l11.1-134.8c.4-5.4 4.9-9.5 10.3-9.5l190.9-.5c6.1 0 10.9 5.2 10.4 11.2z" opacity="1" data-original="#869ec9" class=""></path><path fill="#bccbe3" d="m648.8 478.5-4.1-26.4-46.3.1 4.1 26.4z" opacity="1" data-original="#bccbe3"></path><path fill="#869ec9" d="m582.185 478.952 84.7-.17.022 10.7-84.7.17z" opacity="1" data-original="#869ec9" class=""></path><path fill="#5972ba" d="M214.1 186.8c.1 22.4-18.1 40.7-40.5 40.7-22.4.1-40.7-18.1-40.7-40.5-.1-22.4 18.1-40.7 40.5-40.7 22.4-.1 40.7 18 40.7 40.5z" opacity="1" data-original="#5972ba"></path><path fill="#bccbe3" d="M208 186.8c0 19-15.4 34.5-34.4 34.6-19 0-34.5-15.4-34.6-34.4 0-19 15.4-34.5 34.4-34.6s34.5 15.3 34.6 34.4z" opacity="1" data-original="#bccbe3"></path><path fill="#e8edf7" d="M206.3 186.8c0 18.1-14.6 32.9-32.8 32.9-18.1 0-32.9-14.6-32.9-32.8 0-18.1 14.6-32.9 32.8-32.9 18.1 0 32.9 14.6 32.9 32.8z" opacity="1" data-original="#e8edf7"></path><path fill="#869ec9" d="M176.2 186.9c0 1.5-1.2 2.7-2.7 2.7s-2.7-1.2-2.7-2.7 1.2-2.7 2.7-2.7c1.5-.1 2.7 1.1 2.7 2.7z" opacity="1" data-original="#869ec9" class=""></path><path fill="#384562" d="m172.7 186.9.7-28.3.8 28.3zM155.9 202.5l17.6-15.6-16.6 16.7z" opacity="1" data-original="#384562"></path><path d="m173.5 186.9 19.8-17" style="stroke-width:.502;stroke-linecap:round;stroke-linejoin:round;stroke-miterlimit:10" fill="none" stroke="#f38255" stroke-width=".502" stroke-linecap="round" stroke-linejoin="round" stroke-miterlimit="1" data-original="#f38255"></path><path fill="#e8edf7" d="M174.7 186.9c0 .7-.5 1.2-1.2 1.2s-1.2-.5-1.2-1.2.5-1.2 1.2-1.2c.6 0 1.2.5 1.2 1.2z" opacity="1" data-original="#e8edf7"></path><path fill="#bccbe3" d="m694.5 718.9-13.2 76.7-47.5.2-13.6-76.7z" opacity="1" data-original="#bccbe3"></path><path fill="#869ec9" d="M699.6 714.6c0 2.4-1.9 4.4-4.3 4.4l-75.9.2c-2.4 0-4.4-1.9-4.4-4.3 0-1.2.5-2.3 1.3-3.1s1.9-1.3 3.1-1.3l75.9-.2c2.4-.1 4.3 1.9 4.3 4.3z" opacity="1" data-original="#869ec9" class=""></path><path fill="#e8edf7" d="m641.6 710.4-5.9 5.8 18.4 18.4 18.4-18.5-5.9-5.8z" opacity="1" data-original="#e8edf7"></path><path fill="#5aad64" d="M821.5 410.2c-6.8.3-13.1-2.1-17.8-6.4s-7.7-10.3-8.1-17.1c6.8-.3 13.1 2.1 17.8 6.4 4.7 4.2 7.8 10.3 8.1 17.1z" opacity="1" data-original="#5aad64" class=""></path><path fill="#64cc6e" d="M821.5 410.2c-5.9-3.4-9.9-8.9-11.5-15s-.9-12.8 2.5-18.8c5.9 3.4 9.9 8.9 11.5 15s.9 12.9-2.5 18.8z" opacity="1" data-original="#64cc6e"></path><path fill="#5aad64" d="M821.5 410.2c-3.1-6.1-3.5-12.8-1.5-18.9 2-6 6.2-11.3 12.3-14.4 3.1 6.1 3.5 12.8 1.5 18.9-2 6-6.2 11.3-12.3 14.4z" opacity="1" data-original="#5aad64" class=""></path><path fill="#64cc6e" d="M821.5 410.2c.7-6.8 4-12.7 8.9-16.7s11.3-6.1 18.1-5.5c-.7 6.8-4.1 12.7-8.9 16.7-4.9 4-11.3 6.2-18.1 5.5z" opacity="1" data-original="#64cc6e"></path><path fill="#bccbe3" d="m810.6 434 23.1-.1c3.7-3.2 6-8 6-13.3 0-4.3-1.6-8.3-4.2-11.3l-27 .1c-2.6 3.1-4.1 7-4.1 11.3.2 5.4 2.5 10.1 6.2 13.3z" opacity="1" data-original="#bccbe3"></path><path fill="#5972ba" d="M567.3 178.7v28.4h-11.2v20.8h-28.4v-20.8h-57.9v-28.4h-.1l48.9-77h33.7l-48.9 77h24.3v-26.3h28.4v26.3zM810.3 178.7v28.4h-11.2v20.8h-28.4v-20.8h-58v-28.4l48.8-77h33.7l-48.8 77h24.3v-26.3h28.4v26.3z" opacity="1" data-original="#5972ba"></path><g fill="#5972ba"><path d="M510.6 259.7v10.2h-5.9V241h11.2c2.1 0 4 .4 5.7 1.2s2.9 1.9 3.8 3.4 1.3 3.1 1.3 5c0 2.8-1 5.1-2.9 6.7s-4.6 2.4-8 2.4zm0-4.8h5.3c1.6 0 2.7-.4 3.6-1.1.8-.7 1.2-1.8 1.2-3.2s-.4-2.6-1.2-3.4c-.8-.9-2-1.3-3.4-1.3h-5.4v9zM542.4 269.9c-.3-.5-.5-1.2-.6-1.9-1.4 1.5-3.2 2.3-5.4 2.3-2.1 0-3.8-.6-5.2-1.8s-2.1-2.7-2.1-4.6c0-2.3.8-4 2.5-5.2s4.1-1.8 7.2-1.8h2.6v-1.2c0-1-.3-1.8-.8-2.4s-1.3-.9-2.4-.9c-1 0-1.7.2-2.2.7s-.8 1.1-.8 1.9h-5.7c0-1.2.4-2.4 1.1-3.4.8-1.1 1.8-1.9 3.2-2.5s2.9-.9 4.7-.9c2.6 0 4.7.7 6.2 2s2.3 3.2 2.3 5.6v9.3c0 2 .3 3.6.8 4.6v.3h-5.4zm-4.7-4a4.645 4.645 0 0 0 3.9-2.1v-3.7h-2.1c-2.8 0-4.4 1-4.5 3v.3c0 .7.2 1.3.7 1.8.5.4 1.1.7 2 .7zM550.8 259c0-3.3.8-5.9 2.3-7.9 1.6-2 3.6-3 6.3-3 2.3 0 4.1.8 5.4 2.4l.2-2h5.1v20.7c0 1.9-.4 3.5-1.3 4.9-.8 1.4-2 2.4-3.6 3.2-1.5.7-3.3 1.1-5.4 1.1-1.6 0-3.1-.3-4.6-.9s-2.6-1.4-3.4-2.4l2.5-3.5c1.4 1.6 3.1 2.4 5.1 2.4 1.5 0 2.7-.4 3.5-1.2s1.3-2 1.3-3.5V268c-1.3 1.5-3 2.2-5.2 2.2-2.6 0-4.6-1-6.2-3s-2.4-4.7-2.4-8v-.2zm5.7.4c0 1.9.4 3.5 1.2 4.6s1.8 1.7 3.2 1.7c1.7 0 3-.7 3.7-2v-9c-.8-1.3-2-2-3.7-2-1.4 0-2.4.6-3.2 1.7s-1.2 2.8-1.2 5zM584.4 270.2c-3.1 0-5.6-1-7.6-2.9s-2.9-4.5-2.9-7.7v-.6c0-2.2.4-4.1 1.2-5.8s2-3 3.5-3.9 3.2-1.4 5.2-1.4c2.9 0 5.2.9 6.9 2.8 1.7 1.8 2.5 4.5 2.5 7.9v2.3h-13.5c.2 1.4.7 2.5 1.7 3.4.9.8 2.1 1.3 3.5 1.3 2.2 0 3.9-.8 5.1-2.4l2.8 3.1c-.8 1.2-2 2.2-3.5 2.8-1.5.8-3.2 1.1-4.9 1.1zm-.7-17.6c-1.1 0-2 .4-2.7 1.2s-1.1 1.9-1.3 3.3h7.9v-.5c0-1.3-.4-2.3-1-3-.7-.6-1.7-1-2.9-1zM611.6 248.4l.2 2.5c1.5-1.9 3.6-2.9 6.1-2.9 2.3 0 3.9.7 5 2s1.7 3.3 1.7 6v13.8h-5.7v-13.7c0-1.2-.3-2.1-.8-2.6s-1.4-.8-2.6-.8c-1.6 0-2.8.7-3.6 2.1v15.1h-5.7v-21.4h5.4zM628 258.9c0-2.1.4-4 1.2-5.7s2-3 3.5-3.9 3.3-1.4 5.3-1.4c2.9 0 5.2.9 7 2.7s2.8 4.2 3 7.2v1.5c0 3.3-.9 5.9-2.7 7.9s-4.3 3-7.3 3c-3.1 0-5.5-1-7.3-3s-2.7-4.7-2.7-8.1zm5.7.4c0 2 .4 3.6 1.1 4.7.8 1.1 1.8 1.6 3.3 1.6 1.4 0 2.4-.5 3.2-1.6s1.2-2.8 1.2-5.1c0-2-.4-3.5-1.2-4.6s-1.9-1.6-3.3-1.6-2.5.5-3.2 1.6c-.8 1.1-1.1 2.8-1.1 5zM658.4 243.2v5.3h3.6v4.2h-3.6v10.7c0 .8.2 1.4.5 1.7s.9.5 1.7.5c.6 0 1.2 0 1.7-.1v4.3c-1.1.3-2.3.5-3.4.5-4 0-6-2-6.1-6.1v-11.5h-3.1v-4.2h3.1v-5.3zM676.7 269.9v-17.2h-3.2v-4.2h3.2v-1.8c0-2.4.7-4.3 2.1-5.6s3.3-2 5.7-2c.8 0 1.7.1 2.9.4l-.1 4.4c-.5-.1-1-.2-1.7-.2-2.1 0-3.2 1-3.2 3v1.7h4.2v4.2h-4.2v17.2h-5.7zM688.7 258.9c0-2.1.4-4 1.2-5.7s2-3 3.5-3.9 3.3-1.4 5.3-1.4c2.9 0 5.2.9 7 2.7s2.8 4.2 3 7.2v1.5c0 3.3-.9 5.9-2.7 7.9s-4.3 3-7.3 3c-3.1 0-5.5-1-7.3-3s-2.7-4.7-2.7-8.1zm5.7.4c0 2 .4 3.6 1.1 4.7s1.8 1.6 3.3 1.6c1.4 0 2.4-.5 3.2-1.6s1.2-2.8 1.2-5.1c0-2-.4-3.5-1.2-4.6s-1.9-1.6-3.3-1.6-2.5.5-3.2 1.6-1.1 2.8-1.1 5zM725.1 267.7c-1.4 1.7-3.3 2.6-5.8 2.6-2.3 0-4-.7-5.2-2s-1.8-3.3-1.8-5.8v-14h5.7v13.9c0 2.2 1 3.4 3 3.4 1.9 0 3.2-.7 4-2v-15.2h5.7V270h-5.3zM740.1 248.4l.2 2.5c1.5-1.9 3.6-2.9 6.1-2.9 2.3 0 3.9.7 5 2s1.7 3.3 1.7 6v13.8h-5.7v-13.7c0-1.2-.3-2.1-.8-2.6s-1.4-.8-2.6-.8c-1.6 0-2.8.7-3.6 2.1v15.1h-5.7v-21.4h5.4zM756.5 259c0-3.3.7-6 2.2-8s3.5-3 6.1-3c2.1 0 3.8.8 5.1 2.3v-10.9h5.7v30.4h-5.1l-.3-2.3c-1.4 1.8-3.2 2.7-5.5 2.7-2.5 0-4.5-1-6-3-1.5-1.9-2.2-4.7-2.2-8.2zm5.6.4c0 2 .3 3.6 1 4.6.7 1.1 1.7 1.6 3 1.6 1.8 0 3-.7 3.7-2.2v-8.5c-.7-1.5-1.9-2.2-3.7-2.2-2.6 0-4 2.2-4 6.7z" fill="#5972ba" opacity="1" data-original="#5972ba"></path></g><path fill="#fbae5c" d="M571.8 179.2c7.9 34 41.8 55.2 75.8 47.3s55.2-41.8 47.3-75.8-41.8-55.2-75.8-47.3-55.2 41.8-47.3 75.8z" opacity="1" data-original="#fbae5c" class=""></path><path fill="#090909" d="M629.5 140.1c-3-1-5.7-1.8-8.4-2.4s-5.4-.8-8-.9c-2.7 0-5.3.2-8.1.8-2.7.5-5.5 1.3-8.5 2.3 1.6-2.7 4.2-4.8 7.1-6.2s6.2-2.2 9.5-2.1c3.3 0 6.5.8 9.4 2.3 2.8 1.3 5.3 3.4 7 6.2z" opacity="1" data-original="#090909"></path><path fill="#e26439" d="M627.7 127.8c-4.6-3.9-10.5-5.5-16-4.9-.5.1-.8.5-.8 1 .1.4.4.7.8.8 4.9.6 9.3 3.4 11.8 7 .9 1.3 2.7 1.6 4 .7s1.6-2.7.7-4c-.1-.2-.3-.4-.5-.6zM647.7 119.4c3.3-2.9 8.2-4.6 13.1-4.1.5.1.9-.3 1-.8 0-.4-.2-.8-.6-.9-5.1-1.9-11.3-1.7-16.7 1l-.1.1c-1.4.7-2 2.5-1.3 3.9s2.5 2 3.9 1.3c.3-.2.5-.4.7-.5z" opacity="1" data-original="#e26439" class=""></path><circle cx="658.3" cy="133.8" r="13.7" fill="#f9f6f1" transform="rotate(-13 658.856 133.857)" opacity="1" data-original="#f9f6f1" class=""></circle><circle cx="660.5" cy="131.3" r="7.4" fill="#090909" transform="rotate(-13 661.059 131.335)" opacity="1" data-original="#090909"></circle><path fill="#e26439" d="M605 181.5s11.3 3.1 15.3 9.7 9.5 9.9 18.6 10 14.6-5.9 17.8-13.6c3.1-7.8 11.3-9.8 11.3-9.8s-2.4-.7-8.5-3.3-5.5-8-11.2-13.4c-5.7-5.5-11.5 0-11.5 0-9.4-4.9-13 1.6-18.4 10.1-5.6 8.5-13.4 10.3-13.4 10.3z" opacity="1" data-original="#e26439" class=""></path><path fill="url(#a)" d="M647.2 142.5c10.3 4.1 20.5 2.8 22.7-2.9s-4.3-13.6-14.6-17.6c-10.3-4.1-20.5-2.8-22.7 2.9-2.3 5.6 4.3 13.5 14.6 17.6z" opacity="1" data-original="url(#a)" class=""></path><path fill="#090909" d="M632.5 181.7c1.1-.6 2.5-.1 3.4.8s1.4 2.1 1.7 3.3c-.2-1.3.2-2.6 1.2-3.5 1-.8 2.4-1.1 3.6-.7-2.8-2.5-4.8-5.9-5.6-9.6.7 3.9-1.2 7.4-4.3 9.7z" opacity="1" data-original="#090909"></path><path fill="url(#b)" d="M603.9 212.1c26 16.3 60.3 8.3 76.6-17.7s8.3-60.3-17.7-76.6-60.3-8.3-76.6 17.7-8.3 60.4 17.7 76.6z" opacity="1" data-original="url(#b)"></path><path fill="#384562" d="m653.2 113.5 14.1 87.4c.4 2.5 2.8 4.3 5.4 3.9L715 198c2.5-.4 4.3-2.8 3.9-5.4l-14.1-87.4c-.4-2.6-2.8-4.3-5.4-3.9l-42.3 6.8c-2.5.4-4.3 2.8-3.9 5.4z" opacity="1" data-original="#384562"></path><path fill="#ffffff" d="m682.3 110 2.3 14.1c.2 1 1.1 1.7 2.1 1.5l14.1-2.3c1-.2 1.7-1.1 1.5-2.1l-2.3-14.1c-.2-1-1.1-1.7-2.1-1.5l-14.1 2.3c-1 .2-1.7 1.1-1.5 2.1z" opacity="1" data-original="#ffffff"></path><path fill="#384562" d="M692 111.2c.3 1.8 2 3 3.7 2.7 1.8-.3 3-1.9 2.7-3.7s-2-3-3.7-2.7c-1.8.2-3 1.9-2.7 3.7z" opacity="1" data-original="#384562"></path><path fill="#ffffff" d="M694.3 110.8c.1.5.5.8 1 .7s.8-.5.7-1-.5-.8-1-.7c-.4.1-.7.5-.7 1z" opacity="1" data-original="#ffffff"></path><path fill="#384562" d="M693.4 120c.3 1.8 2 3 3.7 2.7 1.8-.3 3-1.9 2.7-3.7s-2-3-3.7-2.7c-1.8.3-3 1.9-2.7 3.7z" opacity="1" data-original="#384562"></path><path fill="#ffffff" d="M695.8 119.6c.1.5.5.8 1 .7s.8-.5.7-1-.5-.8-1-.7-.8.5-.7 1z" opacity="1" data-original="#ffffff"></path><path fill="#384562" d="M685.4 116.8c.3 1.8 2 3 3.7 2.7 1.8-.3 3-1.9 2.7-3.7s-2-3-3.7-2.7c-1.8.2-3 1.9-2.7 3.7z" opacity="1" data-original="#384562"></path><path fill="#ffffff" d="M687.7 116.4c.1.5.5.8 1 .7s.8-.5.7-1-.5-.8-1-.7c-.4 0-.7.5-.7 1z" opacity="1" data-original="#ffffff"></path><g fill="#fbae5c"><path d="M688.3 149c.8 4.3 7.7 6.6 19.4 4.3s13.1-6.1 12.3-10.4-3.6-7.3-15.3-5.1c-11.7 2.4-17.2 7-16.4 11.2z" fill="#fbae5c" opacity="1" data-original="#fbae5c" class=""></path><path d="M692.5 160.9c.8 4.3 5.3 7 16.9 4.7 11.7-2.3 13.1-6.1 12.3-10.4s-3.6-7.3-15.3-5.1c-11.6 2.3-14.7 6.5-13.9 10.8z" fill="#fbae5c" opacity="1" data-original="#fbae5c" class=""></path><path d="M695.6 170.2c.7 3.8 4.7 6.2 15 4.2s11.6-5.4 10.9-9.2-3.2-6.5-13.5-4.5c-10.4 2.1-13.1 5.8-12.4 9.5z" fill="#fbae5c" opacity="1" data-original="#fbae5c" class=""></path><path d="M699.2 177.9c.7 3.4 4.2 5.7 13.7 3.8 9.4-1.8 10.6-5 9.9-8.4s-2.9-5.9-12.3-4.1c-9.5 1.9-12 5.2-11.3 8.7z" fill="#fbae5c" opacity="1" data-original="#fbae5c" class=""></path></g></g></svg>