<svg xmlns="http://www.w3.org/2000/svg" version="1.1" xmlns:xlink="http://www.w3.org/1999/xlink" width="512" height="512" x="0" y="0" viewBox="0 0 100 100" style="enable-background:new 0 0 512 512" xml:space="preserve"><g><path d="M61.71 17.29a.955.955 0 0 0-.33-.22c-.12-.04-.25-.07-.38-.07H29.5c-3.58 0-6.5 2.92-6.5 6.5v56c0 3.58 2.92 6.5 6.5 6.5h41c3.58 0 6.5-2.92 6.5-6.5V33c0-.13-.03-.26-.08-.38s-.12-.23-.22-.33zm.29 3.12L73.59 32H66.5c-2.48 0-4.5-2.02-4.5-4.5zM75 79.5c0 2.48-2.02 4.5-4.5 4.5h-41c-2.48 0-4.5-2.02-4.5-4.5v-56c0-2.48 2.02-4.5 4.5-4.5H60v8.5c0 3.58 2.92 6.5 6.5 6.5H75z" fill="#000000" opacity="1" data-original="#000000"></path><path d="M36 30h13c.55 0 1-.45 1-1s-.45-1-1-1H36c-.55 0-1 .45-1 1s.45 1 1 1zM64 39H36c-.55 0-1 .45-1 1s.45 1 1 1h28c.55 0 1-.45 1-1s-.45-1-1-1zM64 50H36c-.55 0-1 .45-1 1s.45 1 1 1h28c.55 0 1-.45 1-1s-.45-1-1-1zM64 61H36c-.55 0-1 .45-1 1s.45 1 1 1h28c.55 0 1-.45 1-1s-.45-1-1-1zM64 72H36c-.55 0-1 .45-1 1s.45 1 1 1h28c.55 0 1-.45 1-1s-.45-1-1-1z" fill="#000000" opacity="1" data-original="#000000"></path></g></svg>