<svg xmlns="http://www.w3.org/2000/svg" version="1.1" xmlns:xlink="http://www.w3.org/1999/xlink" width="512" height="512" x="0" y="0" viewBox="0 0 128 128" style="enable-background:new 0 0 512 512" xml:space="preserve"><g><path d="M113.078 103.367a15.764 15.764 0 0 0-11.159-9.592L80.37 88.869l-1.392-9.458a26.648 26.648 0 0 0 6.753-7.148 11.829 11.829 0 0 0 9.809-10.751 11.951 11.951 0 0 0 .61-20.606c-.184-1.163 1.529-15.995-9.382-26.112C81.011 9.48 73.139 6.67 64 6.67c-19.53 0-32.15 12.51-32.15 31.87v2.373a11.951 11.951 0 0 0 6.36 22.068h.161a25.581 25.581 0 0 0 10.608 16.713l-1.34 9.11-21.579 4.96a15.725 15.725 0 0 0-11.129 9.587l-6.12 15.59a1.75 1.75 0 0 0 1.629 2.389h107.12a1.748 1.748 0 0 0 1.628-2.389zM86.7 47.146a94.2 94.2 0 0 0-6.468-10.329c1.886-2.828 2.272-6.491 2.162-9.856v-.258c4.106 6.108 4.391 13.122 4.306 20.443zm1.389 20.58a26.554 26.554 0 0 0 1.411-4.745h.3a12.072 12.072 0 0 0 1.991-.179 8.353 8.353 0 0 1-3.702 4.924zM98.25 51.02a8.456 8.456 0 0 1-8.282 8.459c.084-1.3.248-15.448.21-16.9a8.447 8.447 0 0 1 8.072 8.441zm-68.49 0a8.459 8.459 0 0 1 8.2-8.446c.092 3.048.167 16.8.168 16.907a8.467 8.467 0 0 1-8.368-8.461zM38 39.083a11.927 11.927 0 0 0-2.654.34v-.883C35.35 21.306 46.6 10.17 64 10.17c8.243 0 15.3 2.488 20.391 7.193 9.276 8.6 8.146 21.373 8.259 22.05a11.964 11.964 0 0 0-2.64-.331c-1.322-10.41-4.659-17.382-14.348-22.874a1.682 1.682 0 0 0-.374-.153 26.5 26.5 0 0 0-24.823 1.065C42.835 22.166 38.558 28.935 38 39.083zm14.336-19.006a23.1 23.1 0 0 1 21.625-.777c2.78 1.5 4.491 3.551 4.808 5.7 1.071 10.7-3.727 14.359-11.056 12.15l-.069-.021c-8.91-3.47-18.376-3.088-26.169 2.55.36-9.288 4.178-15.179 10.861-19.602zm-10.7 41.056-.118-16.967A21.363 21.363 0 0 1 53 38.647c11.264-1.689 17 6.1 24.761.718a106.794 106.794 0 0 1 8.749 15.083c-.03 3.58.068 3.758-.081 5.363-.034.374-.077.752-.131 1.131v.049l-.007.076a23.125 23.125 0 0 1-2.63 7.863h-9.382a4.333 4.333 0 0 0-4.119-3.16h-3.87a4.276 4.276 0 0 0-4.271 4.27v1.271a4.275 4.275 0 0 0 4.271 4.269h3.87a4.315 4.315 0 0 0 4.116-3.15h7.034a22.765 22.765 0 0 1-17.541 8.44 22.269 22.269 0 0 1-22.13-19.737zM70.93 70.04v1.271a.77.77 0 0 1-.77.769h-3.87a.771.771 0 0 1-.771-.769V70.04a.771.771 0 0 1 .771-.77h3.87a.77.77 0 0 1 .77.77zm6.57 23.351c-9.564 3.713-17.993 3.722-27 .03l.433-2.925v-.021l1.3-8.831a25.808 25.808 0 0 0 23.509-.215zM13.007 117.83l5.181-13.2a12.23 12.23 0 0 1 8.654-7.456l20.25-4.655-.253 1.724A1.753 1.753 0 0 0 47.86 96.1c11.055 4.909 21.123 4.659 32.243.015a1.75 1.75 0 0 0 1.058-1.867l-.242-1.665 20.222 4.6a12.262 12.262 0 0 1 8.68 7.463l5.172 13.18z" fill="#000000" opacity="1" data-original="#000000"></path></g></svg>

